<?xml version="1.0" standalone="no"?>
<!DOCTYPE svg PUBLIC "-//W3C//DTD SVG 20010904//EN"
 "http://www.w3.org/TR/2001/REC-SVG-20010904/DTD/svg10.dtd">
<svg version="1.0" xmlns="http://www.w3.org/2000/svg"
 width="2048.000000pt" height="2048.000000pt" viewBox="0 0 2048.000000 2048.000000"
 preserveAspectRatio="xMidYMid meet">

<g transform="translate(0.000000,2048.000000) scale(0.100000,-0.100000)"
fill="#000000" stroke="none">
<path d="M10925 20430 c-100 -28 -134 -45 -203 -100 -68 -56 -142 -160 -174
-245 -20 -52 -23 -79 -23 -210 1 -142 2 -155 32 -242 77 -221 202 -409 406
-614 113 -112 381 -329 407 -329 31 0 33 36 7 108 -55 147 -68 203 -88 372
-25 210 -22 379 12 575 29 170 32 386 6 460 -27 80 -97 159 -170 194 -67 33
-160 46 -212 31z"/>
<path d="M1840 20414 c-120 -32 -239 -134 -300 -257 -53 -108 -60 -156 -44
-319 15 -165 23 -202 80 -397 119 -403 121 -412 149 -751 9 -96 19 -204 24
-240 6 -36 13 -93 17 -127 8 -71 27 -84 43 -29 15 57 39 107 191 411 80 160
155 313 167 340 62 143 86 206 143 375 98 291 118 372 126 510 7 118 -6 190
-53 286 -79 162 -333 254 -543 198z"/>
<path d="M2829 20407 c-149 -42 -266 -175 -314 -357 -24 -94 -30 -333 -12
-500 32 -301 -22 -486 -220 -746 -12 -17 -23 -35 -23 -41 0 -5 -11 -19 -25
-31 -14 -13 -23 -27 -20 -32 20 -32 162 29 339 147 423 282 759 683 798 953
29 194 -51 404 -197 523 -98 79 -226 112 -326 84z"/>
<path d="M11604 20401 c-33 -20 -90 -93 -121 -156 -72 -143 -116 -494 -94
-745 11 -130 54 -388 71 -427 19 -45 35 -25 58 75 27 114 62 192 239 527 158
301 177 349 178 465 0 78 -3 90 -32 140 -38 67 -76 104 -125 124 -52 22 -136
20 -174 -3z"/>
<path d="M4772 20380 c-108 -54 -197 -171 -223 -291 -14 -65 1 -177 31 -243
108 -229 495 -314 875 -190 257 84 499 261 608 445 61 103 67 99 -151 99 -411
0 -782 69 -882 165 -59 56 -163 62 -258 15z"/>
<path d="M7905 20404 c-25 -6 -183 -39 -255 -53 -74 -15 -569 -68 -695 -75
-55 -3 -152 -8 -215 -11 -289 -13 -458 -29 -473 -44 -31 -31 239 -201 493
-310 431 -184 913 -305 1265 -318 207 -7 277 7 375 72 79 52 119 99 156 180
36 77 32 193 -8 275 -56 115 -203 223 -358 266 -55 15 -248 27 -285 18z"/>
<path d="M18445 20399 c-121 -25 -243 -110 -288 -203 -47 -96 -60 -168 -53
-286 8 -138 28 -219 126 -510 57 -169 81 -232 143 -375 12 -27 87 -180 167
-340 152 -304 176 -354 191 -411 16 -55 35 -42 43 29 4 34 11 91 17 127 5 36
15 144 24 240 28 339 30 348 149 751 57 195 65 232 80 397 16 165 9 212 -46
322 -36 71 -55 95 -121 152 -100 86 -159 109 -287 114 -52 2 -117 -2 -145 -7z"/>
<path d="M475 20391 c-154 -16 -295 -128 -353 -278 -17 -43 -33 -89 -35 -103
-3 -14 -10 -50 -17 -80 -9 -44 -8 -74 3 -152 15 -93 17 -99 89 -210 41 -62 81
-124 88 -138 7 -14 47 -61 89 -105 104 -108 167 -181 221 -250 25 -32 77 -94
115 -138 70 -81 93 -111 174 -228 24 -35 49 -68 55 -74 10 -9 51 -61 192 -245
18 -25 53 -70 76 -100 24 -31 74 -103 111 -160 87 -134 118 -180 192 -286 33
-47 76 -111 95 -142 20 -30 41 -57 47 -59 19 -7 25 54 19 190 -4 73 -9 188
-11 257 -3 69 -9 163 -14 210 -4 47 -16 171 -25 275 -10 105 -21 197 -26 205
-4 9 -11 49 -14 90 -4 41 -14 113 -22 160 -8 47 -22 123 -30 170 -8 47 -21
112 -29 145 -7 33 -23 105 -35 160 -50 233 -150 487 -238 604 -79 106 -225
204 -389 262 -66 23 -213 32 -328 20z"/>
<path d="M9547 20385 c-61 -17 -211 -88 -254 -121 -83 -63 -108 -133 -92 -259
12 -95 49 -163 129 -238 68 -64 223 -187 313 -246 55 -37 392 -207 517 -261
150 -65 539 -265 865 -446 62 -35 105 -43 105 -21 0 7 -31 38 -68 69 -116 97
-304 298 -397 423 -48 66 -105 143 -127 170 -65 85 -231 306 -288 384 -29 40
-75 117 -100 170 -88 181 -235 347 -332 376 -63 18 -204 18 -271 0z"/>
<path d="M17540 20385 c-236 -66 -397 -352 -351 -620 46 -265 385 -664 797
-938 177 -118 319 -179 339 -147 3 5 -6 19 -20 32 -14 12 -25 26 -25 31 0 6
-11 24 -23 41 -198 260 -252 445 -220 746 18 167 12 406 -12 500 -27 103 -74
189 -135 248 -105 101 -231 140 -350 107z"/>
<path d="M12445 20384 c-11 -2 -45 -9 -75 -15 -93 -18 -227 -89 -293 -156 -81
-81 -111 -146 -116 -250 -3 -71 0 -89 23 -138 37 -81 77 -128 156 -180 98 -65
168 -79 375 -72 352 13 834 134 1265 318 254 109 524 279 493 310 -15 15 -184
31 -473 44 -246 11 -324 17 -585 46 -275 29 -312 35 -470 71 -85 19 -257 32
-300 22z"/>
<path d="M15560 20379 c-14 -6 -36 -21 -50 -34 -100 -96 -471 -165 -882 -165
-218 0 -212 4 -150 -99 108 -184 350 -361 607 -445 248 -81 528 -74 698 17
123 65 191 161 209 294 17 124 -17 224 -109 324 -73 79 -154 119 -237 118 -34
0 -72 -5 -86 -10z"/>
<path d="M19820 20374 c-115 -23 -323 -127 -396 -200 -67 -67 -93 -103 -142
-194 -67 -126 -134 -318 -172 -495 -12 -55 -28 -127 -35 -160 -8 -33 -21 -99
-30 -147 -8 -49 -22 -125 -30 -170 -7 -46 -17 -117 -21 -158 -3 -41 -10 -81
-14 -90 -5 -8 -16 -100 -26 -205 -9 -104 -21 -228 -25 -275 -5 -47 -11 -141
-14 -210 -2 -69 -7 -184 -11 -257 -6 -136 0 -197 19 -190 6 2 27 29 47 59 19
31 62 95 95 142 74 106 105 152 192 286 37 57 87 129 111 160 23 30 58 75 76
100 141 184 182 236 192 245 6 6 31 39 55 74 81 117 104 147 174 228 39 44 90
106 115 138 54 69 117 142 221 250 42 44 82 91 89 105 7 14 47 76 88 138 72
111 74 117 89 210 11 78 12 108 3 152 -7 30 -14 66 -17 80 -2 14 -18 60 -35
103 -42 109 -117 190 -225 240 -75 35 -83 36 -213 41 -74 2 -146 2 -160 0z"/>
<path d="M3913 20265 c-228 -64 -419 -275 -484 -535 -35 -140 -86 -226 -264
-446 -44 -55 -104 -126 -135 -159 -30 -34 -91 -105 -135 -159 -44 -55 -107
-130 -140 -168 -68 -79 -95 -117 -95 -135 0 -20 94 -16 243 12 454 84 955 308
1263 567 141 119 248 258 279 362 21 71 19 214 -5 315 -38 157 -120 268 -238
324 -78 36 -204 46 -289 22z"/>
<path d="M16407 20249 c-102 -24 -200 -104 -256 -208 -64 -120 -91 -340 -56
-457 31 -104 138 -243 279 -362 308 -259 809 -483 1263 -567 149 -28 243 -32
243 -12 0 18 -27 56 -95 135 -33 38 -96 113 -140 168 -44 54 -105 125 -135
159 -31 33 -91 104 -135 159 -178 220 -229 306 -264 446 -90 358 -415 607
-704 539z"/>
<path d="M6058 20004 c-25 -38 -81 -103 -125 -144 -169 -160 -352 -254 -670
-345 -140 -41 -172 -59 -201 -115 -57 -109 11 -289 131 -351 179 -93 509 76
735 376 67 89 167 291 187 375 19 84 20 229 1 255 -13 18 -17 14 -58 -51z"/>
<path d="M14420 20031 c-15 -29 -12 -176 5 -251 20 -84 120 -286 187 -375 187
-248 470 -423 649 -402 130 16 224 125 236 272 4 49 0 68 -19 105 -29 56 -61
74 -201 115 -318 91 -501 185 -670 345 -44 41 -100 105 -124 143 -23 37 -45
67 -48 67 -2 0 -9 -9 -15 -19z"/>
<path d="M6258 20033 c-3 -4 -6 -32 -6 -60 -1 -69 -37 -236 -74 -347 -36 -107
-112 -247 -184 -336 -88 -110 -257 -261 -339 -303 -105 -54 -278 -182 -314
-231 -95 -133 -58 -280 91 -361 46 -25 57 -27 132 -23 282 16 570 299 701 690
51 154 75 310 75 491 0 165 -9 244 -42 382 -22 90 -32 114 -40 98z"/>
<path d="M14266 20008 c-45 -145 -66 -292 -66 -475 0 -181 24 -337 75 -491
131 -391 419 -674 701 -690 75 -4 86 -2 132 23 149 81 186 228 91 361 -36 49
-209 177 -314 231 -82 42 -251 193 -339 303 -72 89 -148 229 -184 336 -38 113
-74 281 -74 351 -1 50 -13 80 -22 51z"/>
<path d="M6320 19966 c0 -7 7 -30 15 -51 20 -46 46 -171 59 -280 2 -22 10 -83
18 -135 12 -94 16 -588 5 -695 -26 -242 -97 -543 -179 -760 -40 -105 -55 -218
-38 -280 27 -96 90 -138 203 -134 92 3 182 20 227 43 127 66 280 256 319 396
7 25 16 59 21 75 20 64 31 194 26 290 -8 154 -92 497 -177 720 -139 365 -217
506 -404 729 -80 95 -95 108 -95 82z"/>
<path d="M14125 19864 c-187 -223 -265 -364 -404 -729 -85 -223 -169 -566
-177 -720 -5 -96 6 -226 26 -290 5 -16 14 -50 21 -75 30 -109 120 -238 230
-332 69 -58 110 -79 184 -93 201 -39 301 -3 335 120 17 62 2 175 -38 280 -82
217 -153 518 -179 760 -11 107 -7 601 5 695 8 52 16 113 18 135 13 109 39 234
59 280 16 41 19 65 8 64 -5 0 -44 -43 -88 -95z"/>
<path d="M6644 19845 c3 -9 13 -44 22 -78 17 -66 104 -262 155 -350 144 -246
301 -420 489 -542 182 -118 277 -150 420 -143 107 6 173 33 233 97 62 66 81
121 75 221 -7 112 -55 209 -152 305 l-71 70 -135 43 c-74 23 -140 42 -146 42
-14 0 -408 149 -509 193 -44 19 -140 62 -214 96 -137 63 -178 74 -167 46z"/>
<path d="M13770 19798 c-236 -111 -727 -309 -764 -308 -6 0 -72 -19 -146 -42
l-135 -43 -71 -70 c-99 -98 -146 -194 -152 -309 -5 -99 13 -149 77 -219 57
-62 125 -89 231 -95 143 -7 238 25 420 143 188 122 345 296 489 542 51 88 138
284 155 350 9 34 19 69 22 78 10 26 -35 17 -126 -27z"/>
<path d="M8771 19799 c-75 -15 -127 -47 -186 -116 -69 -81 -88 -118 -109 -211
-34 -149 20 -283 150 -373 74 -51 161 -78 369 -119 33 -6 119 -24 190 -40 139
-31 175 -36 500 -75 121 -14 236 -23 270 -20 68 6 388 14 543 15 95 0 102 1
102 20 0 12 -14 27 -37 40 -50 28 -144 86 -165 103 -10 7 -56 36 -103 63 -47
27 -178 105 -293 172 -114 68 -277 162 -362 209 -85 47 -209 120 -275 164
-237 154 -412 204 -594 168z"/>
<path d="M12005 19600 c-106 -22 -157 -65 -251 -207 -87 -132 -128 -337 -105
-528 32 -279 144 -515 341 -717 146 -150 169 -144 109 27 -76 215 -39 499 87
676 52 71 112 204 130 286 22 98 16 239 -13 304 -54 122 -172 185 -298 159z"/>
<path d="M4454 19266 c-80 -25 -184 -85 -451 -259 -72 -47 -178 -98 -280 -136
-104 -39 -244 -99 -260 -113 -7 -6 -13 -14 -13 -18 0 -9 146 -44 255 -61 102
-15 322 -77 462 -130 158 -61 196 -69 323 -76 133 -6 213 9 317 58 155 74 235
200 230 363 -2 59 -9 86 -35 139 -37 75 -123 161 -194 195 -106 49 -263 66
-354 38z"/>
<path d="M15825 19241 c-90 -26 -132 -49 -196 -109 -173 -159 -170 -406 6
-560 46 -41 147 -88 231 -108 52 -12 97 -15 184 -11 127 7 165 15 323 76 140
53 360 115 462 130 109 17 255 52 255 61 0 4 -6 12 -13 18 -16 14 -156 74
-260 113 -102 38 -208 89 -280 136 -273 178 -383 240 -462 262 -58 16 -181 12
-250 -8z"/>
<path d="M8420 18975 c-108 -29 -220 -93 -290 -164 -79 -81 -113 -142 -137
-246 -34 -152 -15 -251 69 -357 108 -137 341 -176 583 -98 257 83 586 233
1070 490 120 63 245 142 239 151 -3 6 -72 7 -182 3 -290 -10 -429 11 -727 112
-297 101 -357 116 -470 120 -68 3 -118 -1 -155 -11z"/>
<path d="M7032 18843 c3 -65 10 -138 16 -163 6 -25 24 -101 40 -170 37 -159
88 -289 165 -415 111 -184 213 -286 311 -313 54 -15 130 8 178 55 50 48 62 71
82 161 15 66 15 79 1 138 -8 35 -21 77 -29 92 -50 95 -708 732 -757 732 -8 0
-10 -31 -7 -117z"/>
<path d="M13436 18897 c-269 -232 -653 -614 -692 -689 -8 -15 -21 -57 -29 -92
-14 -59 -14 -72 1 -138 20 -90 32 -113 82 -161 48 -47 124 -70 178 -55 98 27
200 129 311 313 77 126 128 256 165 415 16 69 34 145 40 170 6 25 13 98 16
163 5 136 3 138 -72 74z"/>
<path d="M6243 18806 c-15 -48 -95 -181 -172 -284 -61 -81 -214 -240 -393
-408 -84 -78 -105 -112 -115 -179 -18 -134 125 -272 260 -251 160 26 225 118
338 487 65 215 135 603 116 652 -10 27 -23 20 -34 -17z"/>
<path d="M14263 18803 c-19 -49 51 -437 116 -652 113 -369 178 -461 338 -487
135 -21 278 117 260 251 -10 67 -31 101 -115 179 -179 168 -332 327 -393 408
-77 103 -157 236 -172 284 -11 37 -24 44 -34 17z"/>
<path d="M10393 18789 c-323 -20 -607 -138 -735 -307 -84 -110 -121 -259 -99
-394 28 -171 128 -251 308 -250 110 2 216 30 381 101 168 73 317 125 414 145
177 36 478 47 753 27 207 -15 281 -26 442 -67 145 -37 163 -40 163 -23 0 22
-137 183 -275 324 -107 109 -205 177 -369 256 -300 145 -637 209 -983 188z"/>
<path d="M315 18752 c-79 -27 -118 -55 -168 -120 -26 -33 -47 -65 -47 -70 0
-5 -10 -24 -23 -43 -22 -33 -31 -91 -29 -177 1 -34 31 -102 60 -136 40 -45
203 -157 267 -182 57 -23 795 -449 1030 -594 33 -21 89 -55 124 -76 34 -22 90
-60 124 -86 117 -93 116 -56 -4 151 -175 298 -414 644 -593 856 -105 125 -283
301 -370 367 -156 118 -259 148 -371 110z"/>
<path d="M20060 18741 c-178 -55 -458 -319 -749 -706 -130 -173 -299 -430
-420 -636 -120 -207 -121 -244 -4 -151 34 26 90 64 124 86 35 21 91 55 124 76
241 149 973 571 1030 594 83 33 247 153 287 211 26 37 27 47 28 145 0 92 -3
111 -25 154 -37 73 -101 153 -143 179 -76 47 -187 68 -252 48z"/>
<path d="M12325 18661 c-151 -68 -211 -309 -134 -538 42 -128 198 -329 341
-440 75 -57 216 -133 249 -133 22 0 39 15 39 34 0 1 -20 23 -44 48 -47 50 -93
139 -123 234 -19 63 -23 213 -13 494 4 115 2 141 -13 177 -19 43 -107 122
-150 135 -43 12 -112 7 -152 -11z"/>
<path d="M3339 18636 c-214 -76 -451 -321 -602 -621 -84 -167 -124 -306 -163
-565 -47 -316 -37 -589 31 -848 55 -207 158 -419 257 -526 57 -61 70 -56 57
24 -9 58 -8 86 17 270 25 181 52 315 84 409 53 157 100 283 109 295 4 6 14 28
21 49 12 37 22 59 127 256 82 154 167 260 368 456 139 137 190 196 226 267 18
36 21 52 15 112 -18 198 -93 344 -206 401 -97 49 -237 58 -341 21z"/>
<path d="M2353 18635 c-251 -68 -533 -375 -608 -661 -128 -487 140 -1144 634
-1553 59 -49 122 -107 140 -130 18 -22 39 -41 47 -41 18 0 18 7 -1 59 -23 67
-85 368 -104 511 -30 218 -35 546 -10 670 35 176 92 353 152 475 111 225 127
467 39 585 -39 52 -62 68 -116 85 -60 18 -104 18 -173 0z"/>
<path d="M16950 18626 c-30 -7 -73 -22 -96 -33 -107 -56 -182 -205 -200 -399
-6 -60 -3 -76 15 -112 36 -71 87 -130 226 -267 201 -196 286 -302 368 -456
105 -197 115 -219 127 -256 7 -21 17 -43 21 -49 9 -12 56 -138 109 -295 32
-94 59 -228 84 -409 25 -184 26 -212 17 -270 -13 -80 0 -85 57 -24 99 107 202
319 257 526 68 259 78 532 31 848 -28 184 -68 349 -107 445 -148 356 -421 661
-667 744 -70 24 -156 26 -242 7z"/>
<path d="M18010 18615 c-193 -65 -226 -362 -73 -670 60 -122 117 -299 152
-475 25 -124 20 -452 -10 -670 -19 -143 -81 -444 -104 -511 -19 -52 -19 -59
-1 -59 8 0 29 19 47 41 18 23 81 81 140 130 373 309 617 747 659 1185 26 265
-30 476 -179 675 -204 272 -455 412 -631 354z"/>
<path d="M3934 18416 c-10 -25 74 -136 185 -247 265 -263 633 -431 946 -430
210 0 345 65 419 202 26 47 28 58 24 133 -9 170 -111 289 -293 341 -73 22
-227 16 -295 -10 -60 -23 -183 -34 -425 -39 -225 -5 -381 10 -470 43 -66 25
-84 26 -91 7z"/>
<path d="M15308 18391 c-171 -56 -267 -174 -276 -337 -4 -75 -2 -86 24 -133
74 -137 209 -202 419 -202 232 -1 476 83 725 248 221 147 479 443 386 443 -9
0 -40 -9 -71 -21 -89 -33 -245 -48 -470 -43 -242 5 -365 16 -425 39 -70 27
-240 30 -312 6z"/>
<path d="M9375 18187 c-142 -149 -460 -242 -715 -208 -361 47 -532 29 -711
-77 -86 -50 -174 -135 -203 -195 -52 -109 -44 -212 27 -331 134 -225 336 -307
598 -241 93 23 270 114 374 192 114 85 273 239 381 367 161 191 358 487 352
529 -6 43 -40 31 -103 -36z"/>
<path d="M6991 18026 c-5 -12 -17 -79 -26 -147 -9 -68 -23 -158 -31 -199 -28
-136 -36 -253 -31 -435 5 -184 26 -333 55 -390 8 -16 39 -55 69 -86 104 -109
242 -141 358 -85 179 88 211 348 70 571 -24 39 -76 135 -116 215 -90 183 -264
505 -296 548 -29 38 -40 40 -52 8z"/>
<path d="M13497 17998 c-32 -43 -206 -365 -296 -548 -40 -80 -92 -176 -116
-215 -61 -96 -87 -180 -87 -281 0 -95 16 -137 87 -225 54 -68 103 -91 192 -91
87 1 166 38 236 111 30 31 61 70 69 86 29 57 50 206 55 390 5 182 -3 299 -31
435 -8 41 -22 131 -31 199 -24 181 -34 198 -78 139z"/>
<path d="M10920 18000 c-396 -41 -725 -160 -985 -355 -102 -77 -239 -226 -304
-330 -44 -71 -56 -99 -63 -149 -8 -70 5 -161 32 -224 58 -131 244 -266 396
-287 55 -7 161 13 217 41 59 30 135 103 206 198 70 94 198 212 323 297 82 56
350 188 513 252 331 130 635 202 909 215 126 6 141 9 144 25 16 82 -430 246
-820 302 -126 19 -452 27 -568 15z"/>
<path d="M144 17950 c-61 -19 -69 -39 -68 -169 1 -98 5 -129 29 -201 61 -188
135 -311 266 -441 122 -122 208 -164 371 -183 74 -8 136 -10 169 -5 185 29
505 30 802 3 53 -5 67 -3 67 8 0 14 -129 130 -300 269 -587 477 -1145 777
-1336 719z"/>
<path d="M20245 17926 c-301 -69 -866 -430 -1387 -885 -54 -47 -98 -92 -98
-99 0 -11 14 -13 68 -8 296 27 616 26 801 -3 33 -5 95 -3 169 5 163 19 249 61
371 183 179 178 287 404 298 626 6 110 -3 145 -40 170 -34 22 -112 27 -182 11z"/>
<path d="M9404 17786 c-132 -133 -169 -165 -349 -305 -137 -105 -201 -148
-367 -243 -322 -183 -450 -240 -638 -283 -65 -15 -144 -48 -328 -138 -67 -33
-170 -123 -207 -182 -61 -95 -77 -149 -77 -254 1 -122 23 -168 136 -287 154
-164 279 -213 551 -217 143 -2 168 0 235 21 448 141 855 653 1074 1352 84 269
153 672 115 669 -8 -1 -73 -61 -145 -133z"/>
<path d="M4058 17841 c-218 -58 -371 -155 -515 -327 -189 -225 -314 -536 -375
-929 -39 -253 -25 -878 20 -874 4 0 49 85 100 189 205 416 334 604 532 773
112 95 385 283 430 296 80 23 143 62 212 131 191 191 208 481 40 649 -56 56
-107 85 -189 106 -81 21 -132 18 -255 -14z"/>
<path d="M16223 17835 c-161 -44 -267 -162 -296 -331 -39 -226 133 -489 363
-555 45 -13 318 -201 430 -296 198 -169 327 -357 532 -773 51 -104 96 -189
100 -189 25 -2 43 203 42 479 0 210 -4 280 -22 395 -82 527 -286 918 -588
1126 -74 51 -202 105 -314 133 -117 29 -170 31 -247 11z"/>
<path d="M4600 17716 c0 -28 118 -246 194 -361 251 -375 514 -570 710 -525
116 26 217 99 289 208 58 88 88 170 94 262 16 220 -120 390 -311 390 -55 0
-164 -32 -254 -75 -100 -47 -181 -60 -281 -46 -96 14 -286 79 -351 119 -64 40
-90 48 -90 28z"/>
<path d="M15890 17690 c-86 -49 -115 -62 -212 -95 -203 -68 -316 -68 -460 0
-90 43 -199 75 -254 75 -191 0 -327 -170 -311 -390 12 -178 130 -359 283 -434
119 -58 210 -57 332 4 197 100 444 388 612 713 77 150 78 166 10 127z"/>
<path d="M6637 17548 c-65 -81 -129 -183 -188 -303 -234 -476 -234 -993 -1
-1241 106 -113 305 -166 445 -118 147 50 231 227 194 408 -18 87 -67 201 -112
261 -62 82 -168 249 -191 301 -27 61 -60 181 -74 270 -9 53 -14 384 -7 439 4
36 -30 28 -66 -17z"/>
<path d="M13837 17563 c-2 -5 -1 -37 2 -73 3 -36 3 -139 0 -230 -6 -177 -32
-309 -83 -423 -23 -53 -128 -220 -191 -302 -45 -60 -94 -174 -112 -261 -28
-138 10 -271 102 -352 59 -52 119 -72 215 -72 125 0 242 49 322 134 233 248
233 765 -1 1241 -105 213 -231 381 -254 338z"/>
<path d="M6210 17464 c-125 -103 -248 -240 -318 -354 -175 -287 -249 -499
-277 -802 -19 -195 69 -385 211 -454 47 -23 64 -26 117 -22 34 3 81 15 103 26
41 21 102 81 125 123 8 15 15 117 20 303 5 155 15 358 23 451 9 94 18 204 21
245 3 41 10 100 15 130 5 30 14 105 20 165 5 61 13 138 16 173 8 77 0 78 -76
16z"/>
<path d="M12970 17475 c-14 -8 -72 -33 -130 -57 -202 -81 -523 -251 -679 -359
-151 -103 -375 -352 -460 -511 -74 -135 -94 -202 -95 -308 -1 -82 3 -104 27
-160 57 -136 177 -228 306 -238 126 -9 316 50 388 120 58 56 117 225 128 363
16 201 36 308 82 430 112 296 201 421 436 614 68 56 87 78 85 94 -4 27 -51 34
-88 12z"/>
<path d="M14254 17428 c3 -35 11 -112 16 -173 6 -60 15 -135 20 -165 5 -30 12
-89 15 -130 3 -41 12 -151 21 -245 8 -93 18 -296 23 -451 5 -186 12 -288 20
-303 23 -42 84 -102 125 -123 22 -11 69 -23 103 -26 53 -4 70 -1 117 22 142
69 230 259 211 454 -28 303 -102 515 -277 802 -70 114 -199 256 -324 358 -71
58 -78 56 -70 -20z"/>
<path d="M12110 17474 c-132 -12 -352 -49 -478 -80 -198 -48 -351 -104 -532
-196 -347 -175 -563 -388 -644 -633 -22 -69 -35 -238 -24 -320 17 -123 68
-221 151 -288 87 -71 168 -98 290 -98 187 1 359 113 400 260 80 286 415 674
855 990 131 93 287 188 421 256 89 44 117 70 102 93 -5 9 -76 13 -252 16 -134
2 -264 2 -289 0z"/>
<path d="M12861 17096 c-17 -25 -31 -48 -31 -51 0 -4 -29 -69 -64 -144 -35
-75 -73 -163 -84 -196 -74 -222 -68 -464 15 -618 61 -112 181 -213 283 -238
72 -17 195 -17 243 0 168 58 182 266 34 487 -25 38 -62 87 -82 109 -56 61
-157 192 -208 270 -71 111 -81 152 -71 296 5 66 6 123 2 125 -4 2 -21 -16 -37
-40z"/>
<path d="M9439 17058 c-43 -158 -48 -170 -232 -518 -76 -143 -101 -237 -95
-355 6 -108 22 -147 89 -216 57 -58 193 -129 248 -129 44 0 125 21 167 43 47
24 141 133 175 203 24 48 32 81 36 142 10 139 -10 199 -170 512 -77 151 -144
277 -149 278 -5 2 -18 21 -28 43 -11 21 -22 39 -25 39 -2 0 -9 -19 -16 -42z"/>
<path d="M4649 16885 c-425 -85 -885 -438 -1214 -930 -93 -139 -215 -374 -263
-508 -33 -92 -38 -122 -23 -132 5 -3 56 41 113 98 250 249 669 470 1018 537
63 11 133 25 155 30 22 5 69 10 105 11 36 1 69 4 75 8 5 3 37 6 70 8 332 15
597 234 598 495 1 69 -3 84 -36 152 -46 93 -112 154 -221 207 -79 39 -81 39
-195 38 -64 0 -146 -7 -182 -14z"/>
<path d="M15514 16841 c-109 -53 -175 -114 -221 -207 -33 -68 -37 -83 -36
-152 1 -261 266 -480 598 -495 33 -2 65 -5 70 -8 6 -4 39 -7 75 -8 36 -1 83
-6 105 -11 22 -5 92 -19 155 -30 204 -39 373 -105 615 -240 164 -92 291 -185
403 -297 133 -133 149 -127 90 34 -48 134 -170 369 -263 508 -287 430 -680
760 -1057 886 -127 43 -223 59 -347 59 -104 0 -109 -1 -187 -39z"/>
<path d="M5608 16802 c-181 -150 -333 -443 -345 -667 -6 -109 7 -164 51 -212
46 -50 109 -56 193 -18 l60 27 18 76 c17 69 17 90 7 212 -24 263 -14 347 57
523 17 43 31 82 31 87 0 20 -26 9 -72 -28z"/>
<path d="M14860 16810 c0 -5 14 -44 31 -87 71 -176 81 -260 57 -523 -10 -122
-10 -143 7 -212 l18 -76 60 -27 c84 -38 147 -32 193 18 44 48 57 103 51 212
-12 224 -164 517 -345 667 -46 37 -72 48 -72 28z"/>
<path d="M423 16796 c-219 -55 -353 -234 -353 -470 0 -103 13 -159 60 -266 58
-131 111 -394 141 -695 8 -71 12 -271 12 -492 l-1 -373 25 0 c19 0 57 31 153
128 207 207 358 461 460 770 174 529 131 1039 -108 1281 -89 90 -158 123 -261
127 -42 2 -99 -2 -128 -10z"/>
<path d="M1473 16795 c-148 -46 -259 -184 -315 -390 -19 -73 -21 -103 -20
-340 0 -143 -4 -280 -9 -305 -6 -25 -17 -81 -25 -125 -28 -160 -37 -191 -118
-403 -70 -181 -204 -418 -341 -603 -11 -15 -37 -52 -58 -83 -22 -31 -43 -59
-48 -62 -5 -3 -9 -14 -9 -25 0 -16 7 -19 44 -19 128 0 310 52 494 140 235 113
413 248 640 488 166 173 202 217 284 342 139 214 196 395 206 656 5 169 -11
272 -63 381 -76 162 -263 302 -462 347 -85 19 -143 19 -200 1z"/>
<path d="M18855 16772 c-198 -50 -376 -187 -450 -345 -52 -109 -68 -212 -63
-381 10 -261 67 -442 206 -656 82 -125 118 -169 284 -342 227 -240 405 -375
640 -488 184 -88 366 -140 494 -140 37 0 44 3 44 19 0 11 -4 22 -9 25 -5 3
-26 31 -48 62 -21 31 -47 68 -58 83 -137 185 -271 422 -341 603 -81 212 -90
243 -118 403 -8 44 -19 100 -25 125 -5 25 -9 162 -9 305 1 237 -1 267 -20 340
-83 306 -279 450 -527 387z"/>
<path d="M19903 16775 c-113 -35 -220 -139 -288 -280 -202 -419 -95 -1102 256
-1636 99 -149 318 -379 362 -379 l25 0 -1 373 c0 221 4 421 12 492 30 301 83
564 141 695 47 107 60 163 60 266 0 151 -45 262 -147 360 -106 101 -292 149
-420 109z"/>
<path d="M9830 16635 c5 -14 17 -40 27 -58 13 -26 18 -76 24 -277 6 -217 9
-252 29 -303 28 -75 83 -118 179 -142 86 -21 130 -10 191 47 91 86 110 207 53
329 -62 133 -115 187 -326 327 -70 47 -168 102 -181 102 -3 0 -1 -11 4 -25z"/>
<path d="M2581 15856 c-56 -19 -140 -76 -172 -118 -40 -54 -68 -102 -69 -118
0 -21 -125 -231 -203 -343 -191 -273 -452 -523 -710 -684 -272 -168 -551 -260
-862 -284 -149 -12 -187 -21 -146 -34 12 -3 21 -10 21 -15 0 -19 246 -76 460
-106 177 -25 606 -26 775 -1 517 77 927 285 1148 582 57 76 116 183 132 235 4
14 24 61 45 105 49 105 64 171 63 280 -1 278 -163 498 -375 511 -38 2 -81 -2
-107 -10z"/>
<path d="M17773 15832 c-181 -65 -295 -257 -296 -497 -1 -109 14 -175 63 -280
21 -44 41 -91 45 -105 16 -52 75 -159 132 -235 221 -297 631 -505 1148 -582
169 -25 598 -24 775 1 214 30 460 87 460 106 0 5 9 12 21 15 41 13 3 22 -146
34 -311 24 -590 116 -862 284 -258 161 -519 411 -710 684 -76 109 -203 322
-203 341 0 24 -51 102 -96 147 -91 91 -223 126 -331 87z"/>
<path d="M4075 15776 c-223 -51 -474 -206 -706 -436 -141 -139 -208 -220 -297
-352 -69 -103 -70 -122 -3 -69 101 79 244 151 365 183 70 18 112 21 311 22
127 1 300 -2 385 -8 171 -10 237 -2 325 40 72 34 116 74 150 135 71 131 17
303 -130 415 -78 60 -128 77 -240 80 -60 2 -124 -2 -160 -10z"/>
<path d="M16207 15759 c-48 -11 -91 -33 -145 -75 -144 -109 -197 -284 -127
-413 34 -61 78 -101 150 -135 88 -42 154 -50 325 -40 85 6 259 9 385 8 199 -1
241 -4 311 -22 121 -32 264 -104 365 -183 67 -53 66 -34 -3 69 -89 132 -156
213 -297 352 -235 233 -489 389 -711 436 -72 15 -195 17 -253 3z"/>
<path d="M3850 15030 c-266 -37 -555 -147 -786 -301 -122 -82 -315 -262 -298
-279 7 -7 65 -7 176 0 114 7 200 7 275 0 59 -5 158 -15 218 -20 148 -14 264
-29 300 -39 17 -5 57 -14 90 -21 92 -19 125 -30 172 -60 110 -70 284 -80 405
-23 85 40 137 88 179 165 32 59 34 69 34 158 0 87 -3 101 -33 162 -58 117
-167 199 -320 240 -88 23 -306 32 -412 18z"/>
<path d="M16344 15006 c-196 -38 -320 -119 -386 -254 -30 -61 -33 -75 -33
-162 0 -89 2 -99 34 -158 42 -77 94 -125 179 -165 121 -57 295 -47 405 23 47
30 80 41 172 60 33 7 74 16 90 21 36 10 152 25 300 39 61 5 159 15 218 20 75
7 161 7 275 0 111 -7 169 -7 176 0 17 17 -176 197 -298 279 -196 130 -440 233
-671 281 -130 27 -362 35 -461 16z"/>
<path d="M3575 14245 c-125 -22 -251 -62 -361 -114 -143 -68 -324 -196 -310
-219 3 -5 49 -12 103 -15 104 -5 362 -66 458 -107 121 -52 239 -115 326 -175
52 -36 107 -73 123 -83 16 -9 49 -32 74 -51 139 -103 308 -124 449 -55 116 56
196 224 172 357 -15 88 -38 134 -99 200 -104 114 -250 197 -429 244 -121 32
-377 41 -506 18z"/>
<path d="M2451 14235 c-30 -9 -75 -25 -100 -36 -114 -52 -265 -90 -466 -118
-233 -34 -302 -40 -500 -46 -317 -11 -586 21 -806 95 -140 47 -143 25 -11 -74
159 -117 305 -206 487 -296 379 -187 712 -273 1030 -265 337 9 566 130 673
358 24 49 44 110 48 140 12 100 -30 188 -109 229 -54 28 -171 34 -246 13z"/>
<path d="M9822 14137 c-79 -80 -112 -119 -112 -136 0 -17 34 -58 118 -142 94
-96 121 -117 138 -113 30 8 254 237 254 259 0 28 -229 244 -260 245 -19 0 -53
-28 -138 -113z m252 -161 c-13 -17 -45 -51 -70 -76 l-45 -45 -69 75 -69 75 70
69 70 69 69 -68 69 -68 -25 -31z"/>
<path d="M16544 14225 c-217 -39 -391 -128 -514 -262 -61 -66 -84 -112 -99
-200 -24 -133 56 -301 172 -357 141 -69 310 -48 449 55 25 19 58 42 74 51 16
10 71 47 123 83 87 60 205 123 326 175 96 41 354 102 458 107 54 3 100 10 103
15 14 23 -167 151 -310 219 -184 88 -376 130 -586 128 -69 0 -157 -7 -196 -14z"/>
<path d="M17890 14221 c-82 -27 -130 -75 -150 -151 -18 -67 -5 -138 42 -237
154 -328 584 -440 1148 -302 342 84 722 268 1042 505 132 99 129 121 -11 74
-130 -44 -305 -77 -471 -90 -153 -12 -461 -7 -610 11 -298 34 -499 74 -620
120 -30 12 -84 32 -120 46 -69 27 -204 40 -250 24z"/>
<path d="M244 14103 c1 -65 -5 -156 -11 -203 -16 -106 -29 -262 -43 -500 -6
-102 -15 -214 -21 -250 -26 -174 -32 -210 -46 -280 -8 -41 -26 -118 -40 -170
-38 -148 -42 -170 -43 -243 -1 -227 112 -437 279 -520 57 -28 76 -32 146 -32
71 0 89 4 147 33 212 104 334 394 288 686 -5 33 -14 99 -21 146 -27 196 -226
720 -406 1070 -90 175 -208 380 -219 380 -7 0 -11 -39 -10 -117z"/>
<path d="M20193 14052 c-180 -323 -317 -619 -408 -882 -86 -249 -113 -340
-124 -420 -7 -47 -16 -113 -21 -146 -46 -292 76 -582 288 -686 58 -29 76 -33
147 -33 70 0 89 4 146 32 88 44 169 129 217 230 l37 78 3 175 c3 160 1 184
-21 275 -14 55 -32 134 -40 175 -14 70 -20 106 -46 280 -6 36 -15 148 -21 250
-14 238 -27 394 -43 500 -6 47 -12 138 -11 203 1 78 -3 117 -10 117 -6 0 -48
-67 -93 -148z"/>
<path d="M600 13820 c0 -6 16 -40 35 -74 30 -53 79 -170 213 -506 89 -223 136
-362 146 -432 16 -110 130 -261 242 -321 149 -79 294 -71 395 20 69 62 84 102
82 218 -6 437 -385 847 -978 1060 -138 50 -135 49 -135 35z"/>
<path d="M11166 13814 c-11 -11 -16 -35 -16 -80 l0 -64 -65 0 c-52 0 -67 -4
-72 -16 -12 -33 11 -49 74 -52 l61 -3 8 -67 c8 -63 11 -67 34 -67 24 0 25 3
28 68 l3 67 54 0 c68 0 85 7 85 35 0 28 -17 35 -86 35 l-54 0 0 70 c0 58 -3
71 -19 80 -15 7 -23 6 -35 -6z"/>
<path d="M19900 13800 c-8 -5 -51 -22 -95 -36 -93 -31 -279 -117 -368 -170
-379 -228 -605 -558 -610 -889 -2 -116 13 -156 82 -218 101 -91 246 -99 395
-20 112 60 226 211 242 321 10 70 57 209 146 432 134 336 183 453 213 506 19
34 35 67 35 73 0 14 -20 14 -40 1z"/>
<path d="M12192 13678 c-7 -7 -12 -21 -12 -33 0 -47 62 -63 81 -21 22 47 -33
90 -69 54z"/>
<path d="M13973 13633 c-29 -30 -53 -60 -53 -67 0 -7 11 -18 25 -24 24 -11 25
-15 25 -106 0 -89 -1 -95 -25 -110 -30 -20 -32 -37 -7 -59 21 -20 97 -23 154
-7 66 19 58 80 -10 80 l-25 0 6 158 c8 214 -1 228 -90 135z"/>
<path d="M14523 13633 c-29 -30 -53 -60 -53 -67 0 -7 11 -18 25 -24 24 -11 25
-15 25 -106 0 -89 -1 -95 -25 -110 -53 -35 -16 -77 66 -75 71 1 99 10 116 36
12 18 12 23 -2 37 -9 9 -28 16 -42 16 l-26 0 5 153 c5 155 -1 198 -24 196 -7
0 -37 -25 -65 -56z"/>
<path d="M12464 13670 c-16 -5 -41 -21 -55 -36 -23 -24 -24 -33 -27 -165 l-4
-139 34 -34 c44 -44 80 -53 132 -35 67 23 82 57 90 203 4 69 5 134 2 144 -16
49 -106 82 -172 62z m70 -96 c12 -11 16 -35 16 -88 0 -97 -8 -134 -33 -148
-17 -9 -24 -7 -40 13 -16 20 -18 37 -15 117 2 79 6 96 22 108 25 18 31 18 50
-2z"/>
<path d="M12775 13673 c-39 -11 -74 -44 -85 -81 -14 -53 -13 -241 3 -272 17
-34 74 -70 111 -70 17 0 45 9 63 20 53 32 65 68 71 216 l5 131 -36 27 c-36 28
-93 40 -132 29z m59 -99 c25 -24 23 -194 -2 -225 -23 -28 -48 -20 -63 18 -17
42 -3 195 18 211 22 16 28 15 47 -4z"/>
<path d="M13066 13665 c-47 -16 -60 -29 -75 -74 -16 -49 -14 -224 3 -266 17
-40 68 -75 111 -75 40 0 90 32 115 72 17 29 20 51 20 164 0 123 -1 132 -22
151 -50 45 -85 52 -152 28z m68 -88 c16 -12 18 -27 17 -111 -2 -111 -5 -123
-32 -131 -45 -15 -62 35 -52 151 8 94 27 120 67 91z"/>
<path d="M13365 13665 c-22 -8 -41 -15 -42 -15 -1 0 -9 -13 -18 -30 -11 -22
-15 -62 -15 -163 0 -129 1 -135 25 -161 44 -47 94 -57 151 -30 55 26 70 69 77
216 l7 128 -28 26 c-49 46 -88 54 -157 29z m79 -94 c14 -16 16 -32 10 -117 -5
-72 -11 -102 -22 -111 -45 -36 -67 4 -64 117 3 115 33 159 76 111z"/>
<path d="M13675 13665 c-22 -8 -41 -15 -42 -15 -1 0 -10 -14 -19 -31 -13 -25
-16 -60 -15 -161 1 -144 8 -165 66 -192 42 -20 68 -20 111 0 55 26 71 69 76
212 6 136 -1 155 -62 187 -36 18 -63 18 -115 0z m79 -97 c11 -18 13 -46 9
-121 -5 -83 -9 -99 -25 -108 -29 -15 -45 -5 -57 36 -13 47 2 194 20 206 23 14
38 10 53 -13z"/>
<path d="M14253 13624 c-29 -29 -53 -59 -53 -66 0 -8 14 -19 31 -26 l32 -11
-6 -92 c-5 -84 -8 -94 -32 -113 -31 -25 -26 -52 12 -67 39 -15 149 0 170 23
22 25 7 51 -33 58 l-29 5 0 160 c-1 88 -2 166 -3 173 -4 25 -38 8 -89 -44z"/>
<path d="M10497 13593 c-2 -5 -31 -60 -64 -123 -33 -63 -92 -176 -132 -252
-105 -201 -101 -214 69 -203 l110 8 0 -116 c0 -127 9 -167 39 -167 25 0 28 4
111 165 40 77 97 186 126 242 54 102 65 147 42 156 -7 3 -61 3 -119 0 l-106
-6 -7 138 c-4 76 -10 144 -13 151 -5 15 -49 19 -56 7z m13 -363 c9 -6 53 -8
108 -4 50 4 92 3 92 -1 0 -4 -33 -70 -72 -147 l-73 -140 -5 69 c-3 37 -8 73
-12 79 -5 7 -45 9 -119 6 l-112 -5 84 164 84 163 5 -87 c4 -63 9 -91 20 -97z"/>
<path d="M3267 13564 c-4 -4 -100 -10 -214 -15 -313 -12 -633 -69 -608 -109 4
-6 70 -52 148 -104 157 -104 318 -192 477 -260 58 -24 132 -58 165 -74 95 -47
153 -63 240 -65 69 -1 88 2 135 25 129 63 178 130 188 255 6 75 -17 128 -88
206 -57 63 -127 99 -242 127 -81 19 -188 27 -201 14z"/>
<path d="M17067 13530 c-111 -28 -181 -65 -237 -127 -71 -78 -94 -131 -88
-206 10 -125 59 -192 188 -255 47 -23 66 -26 135 -25 87 2 145 18 240 65 33
16 107 50 165 74 159 68 320 156 477 260 78 52 144 98 148 104 24 39 -286 96
-605 111 -113 6 -236 12 -275 14 -48 3 -95 -2 -148 -15z"/>
<path d="M1505 13420 c-10 -17 182 -248 330 -396 165 -166 324 -301 397 -336
54 -26 141 -41 235 -40 74 1 154 39 187 89 85 129 -37 378 -241 493 -66 37
-253 100 -299 100 -19 0 -34 4 -34 9 0 13 -171 49 -265 56 -81 6 -228 22 -277
30 -15 2 -30 0 -33 -5z"/>
<path d="M18955 13399 c-33 -4 -116 -13 -185 -19 -134 -12 -310 -47 -310 -61
0 -5 -15 -9 -34 -9 -46 0 -233 -63 -299 -100 -204 -115 -326 -364 -241 -493
49 -75 144 -100 304 -82 89 10 152 43 273 143 251 209 639 646 559 631 -4 -1
-34 -5 -67 -10z"/>
<path d="M11536 13061 c-4 -6 1 -33 10 -61 19 -59 14 -119 -13 -154 -10 -13
-52 -62 -94 -110 -96 -107 -120 -157 -128 -261 l-6 -80 -803 -6 c-441 -4 -805
-9 -809 -12 -7 -8 -3 -1176 6 -1297 l6 -95 935 4 c514 2 1147 7 1405 10 l470
6 -4 597 c-2 328 -6 641 -10 695 l-6 98 -563 0 -564 0 4 70 c5 93 30 142 129
250 44 49 87 101 94 116 39 74 17 230 -32 237 -11 2 -24 -1 -27 -7z m908 -843
c3 -68 8 -355 11 -639 l5 -517 -758 -6 c-416 -3 -1023 -8 -1348 -11 l-591 -5
-6 196 c-4 109 -7 397 -7 641 l0 443 78 1 c42 1 523 5 1067 8 545 4 1114 8
1266 9 l277 2 6 -122z"/>
<path d="M11625 12233 c-64 -7 -65 -10 -65 -164 0 -126 2 -139 19 -149 28 -15
304 -13 319 2 8 8 12 57 12 155 l0 143 -26 10 c-24 10 -176 11 -259 3z m225
-163 l0 -100 -115 0 -115 0 0 100 0 100 115 0 115 0 0 -100z"/>
<path d="M12035 12231 l-50 -6 -7 -130 c-4 -71 -6 -140 -3 -151 7 -30 29 -34
187 -34 179 0 170 -9 166 171 -2 75 -7 141 -11 146 -10 10 -213 13 -282 4z
m235 -161 l0 -100 -115 0 -115 0 0 100 0 100 115 0 115 0 0 -100z"/>
<path d="M11156 12214 c-13 -12 -16 -41 -16 -154 0 -100 3 -141 13 -147 17
-10 287 -13 315 -2 21 8 22 12 22 152 0 98 -4 147 -12 155 -8 8 -58 12 -159
12 -121 0 -150 -3 -163 -16z m274 -143 l0 -98 -37 -7 c-21 -3 -73 -6 -115 -6
l-78 0 0 98 c0 54 3 102 7 105 3 4 55 7 115 7 l108 0 0 -99z"/>
<path d="M9890 12190 c-18 -18 -20 -33 -20 -147 0 -71 4 -134 9 -142 7 -10 45
-15 155 -19 127 -4 149 -3 172 13 l27 17 -7 136 c-3 75 -11 141 -17 148 -9 11
-47 14 -155 14 -131 0 -146 -2 -164 -20z m273 -141 c4 -50 4 -95 1 -100 -3 -5
-57 -9 -120 -9 l-114 0 0 100 0 100 114 0 113 0 6 -91z"/>
<path d="M10306 12201 c-3 -4 -8 -68 -12 -142 -9 -178 -18 -169 176 -169 122
0 151 3 164 16 13 12 16 40 16 134 0 65 -4 130 -10 144 l-10 26 -159 0 c-88 0
-162 -4 -165 -9z m278 -82 c3 -17 6 -62 6 -100 l0 -69 -115 0 -115 0 0 100 0
100 109 0 109 0 6 -31z"/>
<path d="M10722 12198 c-17 -17 -17 -279 0 -296 18 -18 312 -17 327 2 8 9 11
60 9 157 l-3 144 -160 3 c-116 2 -164 -1 -173 -10z m278 -148 l0 -100 -115 0
-115 0 0 100 0 100 115 0 115 0 0 -100z"/>
<path d="M11575 11834 c-13 -13 -15 -39 -13 -157 l3 -142 50 -6 c27 -3 103 -3
170 0 l120 6 3 144 c2 97 -1 148 -9 157 -18 22 -302 20 -324 -2z m275 -143 l0
-98 -37 -7 c-21 -3 -73 -6 -115 -6 l-78 0 0 98 c0 54 3 102 7 105 3 4 55 7
115 7 l108 0 0 -99z"/>
<path d="M11993 11838 c-6 -7 -13 -72 -17 -144 -8 -178 -19 -168 179 -167 118
2 160 5 166 15 12 19 11 266 -1 289 -10 17 -23 19 -164 19 -111 0 -156 -3
-163 -12z m275 -149 l3 -96 -47 -7 c-26 -3 -78 -6 -115 -6 l-69 0 0 105 0 106
113 -3 112 -3 3 -96z"/>
<path d="M10310 11820 c-17 -32 -26 -266 -10 -285 18 -22 321 -22 340 0 14 16
11 271 -3 293 -6 9 -50 12 -162 12 -143 0 -155 -1 -165 -20z m274 -77 c3 -21
6 -65 6 -99 l0 -61 -67 -6 c-38 -4 -89 -7 -115 -7 l-48 0 0 105 0 105 109 0
108 0 7 -37z"/>
<path d="M10740 11821 c-15 -28 -13 -274 2 -289 14 -14 305 -17 326 -4 9 7 12
45 10 158 l-3 149 -162 3 c-152 2 -163 1 -173 -17z m280 -140 l0 -99 -82 -7
c-46 -4 -96 -5 -113 -3 l-30 3 -3 103 -3 102 116 0 115 0 0 -99z"/>
<path d="M11152 11828 c-8 -8 -12 -57 -12 -154 0 -120 2 -143 16 -148 9 -3 80
-6 159 -6 79 0 150 3 159 6 14 5 16 28 16 148 0 97 -4 146 -12 154 -17 17
-309 17 -326 0z m278 -147 l0 -99 -93 -7 c-140 -11 -132 -17 -135 103 l-3 102
116 0 115 0 0 -99z"/>
<path d="M9896 11814 c-13 -12 -16 -41 -16 -154 0 -93 4 -141 11 -146 20 -12
282 -17 312 -5 l27 11 0 143 c0 98 -4 147 -12 155 -8 8 -58 12 -159 12 -121 0
-150 -3 -163 -16z m274 -149 l0 -105 -115 0 -115 0 0 100 0 99 113 4 c61 1
113 4 115 5 1 1 2 -45 2 -103z"/>
<path d="M11625 11473 c-64 -7 -65 -10 -65 -164 0 -126 2 -139 19 -149 28 -15
304 -13 319 2 8 8 12 57 12 155 0 130 -2 143 -19 153 -19 9 -181 11 -266 3z
m225 -163 l0 -100 -115 0 -115 0 0 100 0 100 115 0 115 0 0 -100z"/>
<path d="M12030 11471 l-45 -6 -7 -130 c-4 -71 -6 -140 -3 -151 7 -30 29 -34
187 -34 179 0 170 -9 166 171 -2 75 -7 141 -11 146 -10 10 -224 13 -287 4z
m240 -161 l0 -100 -115 0 -115 0 0 100 0 100 115 0 115 0 0 -100z"/>
<path d="M10440 11460 l-135 -5 -9 -133 c-6 -96 -5 -141 3 -159 l11 -25 478 7
c262 4 527 10 587 14 l110 6 3 153 3 152 -458 -2 c-252 -1 -519 -5 -593 -8z
m990 -144 l0 -93 -232 -6 c-128 -4 -369 -10 -535 -13 l-303 -7 0 101 0 102
168 3 c92 1 332 4 535 5 l367 2 0 -94z"/>
<path d="M9892 11438 c-8 -8 -12 -54 -12 -150 0 -126 2 -138 19 -148 31 -16
306 -13 320 4 8 9 11 60 9 157 l-3 144 -160 3 c-116 2 -164 -1 -173 -10z m278
-148 l0 -100 -115 0 -115 0 0 100 0 100 115 0 115 0 0 -100z"/>
<path d="M11937 12850 c-31 -25 -51 -80 -42 -120 8 -37 58 -80 92 -80 31 0 89
34 103 60 24 44 1 128 -39 150 -32 16 -86 12 -114 -10z"/>
<path d="M14496 11164 c-6 -6 -144 -180 -306 -386 -162 -207 -296 -374 -298
-373 -2 2 26 159 63 350 36 190 65 358 63 373 -3 30 52 26 -460 37 l-277 5
-15 -22 c-7 -13 -17 -54 -20 -93 -4 -38 -18 -167 -31 -285 -13 -118 -40 -361
-59 -540 -20 -179 -40 -365 -46 -415 -6 -49 -33 -295 -60 -545 -27 -250 -54
-495 -60 -545 -12 -103 -65 -584 -80 -725 -5 -52 -18 -171 -29 -265 -29 -257
-34 -312 -24 -318 4 -3 154 -8 333 -12 179 -4 345 -11 369 -16 24 -6 48 -6 52
-2 10 10 30 282 69 963 6 96 15 240 20 320 5 80 15 235 21 345 6 110 14 203
18 207 4 4 26 -101 50 -235 23 -133 53 -300 66 -372 13 -71 35 -197 50 -280
14 -82 31 -172 36 -200 5 -27 34 -189 64 -360 30 -170 57 -320 60 -332 l5 -23
439 0 c484 0 468 -2 459 62 -4 28 -60 249 -138 543 -33 125 -472 1818 -487
1881 l-16 61 219 269 c120 148 254 314 299 369 45 55 150 186 234 290 84 105
164 199 177 210 34 30 31 53 -8 59 -69 12 -741 11 -752 0z"/>
<path d="M6710 11120 c-63 -5 -216 -13 -340 -20 -124 -6 -229 -15 -233 -19 -8
-8 -16 -59 -37 -216 -5 -38 -21 -153 -35 -255 -14 -102 -30 -216 -35 -255 -5
-38 -21 -153 -35 -255 -14 -102 -30 -216 -35 -255 -5 -38 -21 -153 -35 -255
-14 -102 -30 -216 -35 -255 -5 -38 -21 -153 -35 -255 -34 -242 -123 -895 -135
-985 -5 -38 -21 -153 -35 -255 -14 -102 -30 -216 -35 -255 -30 -225 -62 -455
-69 -486 -5 -21 -5 -42 -1 -49 6 -9 106 -14 371 -21 337 -8 365 -7 381 9 13
13 25 81 52 277 20 143 58 427 86 630 28 204 55 402 60 440 21 160 31 229 55
405 29 208 61 442 84 620 5 36 15 104 21 152 l13 87 51 5 c28 3 110 8 181 11
72 3 170 8 219 12 l89 6 -7 -35 c-3 -20 -17 -121 -31 -224 -13 -104 -31 -241
-40 -304 -8 -63 -29 -221 -46 -350 -16 -129 -41 -318 -54 -420 -14 -102 -36
-270 -49 -375 -14 -104 -32 -242 -41 -305 -71 -533 -78 -601 -64 -615 21 -20
750 -33 765 -14 6 8 23 104 38 214 15 110 31 232 37 270 20 146 59 433 70 510
5 44 14 109 20 145 8 57 62 456 89 655 5 39 25 185 44 325 110 799 204 1483
216 1575 5 39 16 119 25 179 18 131 18 156 2 177 -11 15 -60 19 -380 30 l-368
13 -25 -29 c-13 -15 -24 -31 -24 -34 0 -10 -73 -571 -90 -690 -5 -35 -13 -67
-17 -71 -7 -7 -523 -25 -523 -18 0 2 14 102 30 223 17 121 35 252 40 290 5 39
16 119 25 180 21 148 21 148 -175 135z"/>
<path d="M11640 10666 c-438 -68 -831 -323 -1073 -696 -138 -214 -209 -424
-223 -663 -26 -427 192 -812 561 -995 163 -80 290 -112 485 -119 405 -15 803
150 1107 458 51 52 120 130 153 174 65 87 180 300 180 334 0 14 -9 25 -26 31
-16 6 -174 9 -407 8 l-381 -3 -33 -45 c-125 -169 -211 -246 -333 -297 -54 -22
-81 -27 -155 -27 -80 -1 -97 2 -150 28 -220 109 -298 429 -182 748 87 240 287
438 484 478 200 42 380 -86 442 -313 l16 -62 386 -3 c464 -3 438 -10 420 108
-37 241 -173 474 -368 630 -134 108 -281 175 -468 215 -105 22 -326 28 -435
11z"/>
<path d="M9440 10598 c-148 -6 -218 -12 -226 -21 -23 -25 -1304 -2275 -1304
-2290 0 -9 5 -19 11 -23 12 -7 328 -5 584 5 l170 6 77 140 c111 203 91 185
211 185 56 0 192 5 302 10 115 6 203 6 208 1 5 -5 15 -71 23 -147 8 -76 20
-149 27 -163 12 -25 15 -26 110 -26 414 1 684 7 697 15 16 10 19 -9 -55 345
-24 116 -65 309 -90 430 -26 121 -62 294 -81 385 -55 263 -58 274 -149 715
-60 285 -93 424 -103 433 -18 14 -80 14 -412 0z m-55 -1258 c19 -101 35 -192
35 -202 0 -17 -13 -18 -160 -18 -88 0 -160 2 -160 5 0 3 53 110 117 238 113
225 117 231 125 197 4 -19 23 -118 43 -220z"/>
<path d="M19910 8455 c-77 -22 -126 -53 -193 -124 -111 -116 -175 -305 -164
-485 15 -236 32 -322 109 -539 33 -95 63 -183 68 -197 61 -199 459 -1004 474
-959 3 8 7 73 10 144 2 72 12 182 20 245 9 63 18 160 21 215 21 412 49 626
121 917 20 82 24 122 24 257 0 143 -3 167 -24 225 -82 226 -278 353 -466 301z"/>
<path d="M425 8060 c-64 -9 -141 -48 -183 -92 -18 -19 -49 -74 -70 -124 l-37
-89 2 -200 c1 -110 9 -297 17 -415 9 -118 18 -260 21 -315 3 -55 12 -152 21
-215 8 -63 18 -173 20 -245 3 -71 7 -136 10 -144 11 -32 274 477 323 624 18
55 55 150 82 210 26 61 58 139 69 175 12 36 30 79 40 95 38 63 88 220 99 314
16 132 -24 308 -80 355 -63 54 -217 84 -334 66z"/>
<path d="M1311 7995 c-169 -48 -324 -211 -347 -366 -12 -84 -55 -207 -213
-604 -60 -149 -84 -206 -121 -289 -16 -35 -25 -69 -22 -86 l4 -29 85 30 c428
151 752 408 899 714 60 123 85 226 87 350 2 85 -1 106 -20 141 -26 49 -92 111
-140 130 -52 22 -150 26 -212 9z"/>
<path d="M18938 7926 c-49 -13 -63 -21 -116 -70 -62 -57 -77 -98 -75 -211 6
-392 326 -782 818 -997 104 -46 285 -111 291 -105 3 3 -15 45 -39 93 -48 96
-59 122 -138 319 -158 397 -201 520 -213 604 -11 75 -62 167 -129 235 -70 69
-136 108 -222 131 -70 18 -113 18 -177 1z"/>
<path d="M8582 7893 c-52 -5 -55 -10 -76 -148 -9 -55 -41 -246 -71 -424 -58
-344 -62 -382 -42 -399 19 -16 187 -18 197 -2 4 7 13 72 20 144 17 173 19 176
73 176 63 0 156 19 197 40 49 25 117 101 146 163 35 76 57 187 52 264 -4 65
-5 67 -56 114 -71 65 -122 79 -276 77 -67 -1 -140 -3 -164 -5z m237 -219 c33
-19 46 -39 55 -79 8 -37 -27 -110 -66 -138 -28 -21 -122 -35 -130 -21 -7 11
25 225 35 242 11 17 74 15 106 -4z"/>
<path d="M10508 7893 c-31 -3 -38 -8 -38 -26 0 -12 -11 -85 -25 -162 -96 -538
-125 -708 -125 -734 l0 -31 59 0 c68 0 91 6 91 26 0 20 14 17 36 -7 66 -75
172 -52 276 59 91 97 142 243 142 407 0 117 -20 176 -75 217 -68 51 -128 59
-190 27 -23 -11 -43 -19 -44 -17 -2 2 5 44 16 93 20 95 23 131 12 138 -14 9
-97 14 -135 10z m173 -393 c38 -21 52 -68 46 -151 -10 -128 -67 -239 -123
-239 -34 0 -49 50 -48 160 1 104 21 168 68 215 28 28 30 29 57 15z"/>
<path d="M11110 7878 c-9 -21 -22 -93 -101 -558 -16 -96 -36 -210 -44 -254
-25 -130 -25 -130 91 -120 55 5 75 11 79 23 9 30 165 870 165 890 0 30 -30 41
-110 41 -64 0 -71 -2 -80 -22z"/>
<path d="M2330 7786 c-50 -6 -105 -22 -133 -36 -111 -56 -399 -322 -564 -520
-160 -193 -166 -201 -157 -210 5 -4 56 -2 114 5 58 7 143 16 190 19 98 8 270
44 270 57 0 5 15 9 34 9 50 0 242 66 307 105 158 97 261 251 260 392 0 63 -19
103 -63 136 -68 49 -134 61 -258 43z"/>
<path d="M17960 7723 c-70 -12 -141 -56 -165 -104 -22 -42 -20 -124 5 -193 43
-118 118 -207 239 -281 65 -39 257 -105 307 -105 19 0 34 -4 34 -9 0 -13 172
-49 270 -57 47 -3 132 -12 190 -19 58 -7 109 -9 114 -5 9 9 3 17 -157 210
-170 204 -458 468 -569 522 -58 28 -210 51 -268 41z"/>
<path d="M10019 7701 c-157 -31 -301 -245 -316 -471 -13 -197 71 -338 206
-348 82 -6 145 24 219 102 63 69 120 172 103 189 -5 5 -43 12 -83 15 l-74 4
-39 -41 c-23 -25 -48 -41 -62 -41 -28 0 -51 34 -55 80 l-3 35 170 7 c136 6
172 10 181 23 18 24 26 147 14 214 -14 79 -33 122 -71 166 -51 58 -115 80
-190 66z m75 -190 c20 -22 27 -104 10 -121 -7 -7 -36 -8 -83 -4 l-73 7 6 41
c12 77 98 124 140 77z"/>
<path d="M11540 7673 c-28 -10 -66 -37 -101 -73 -97 -96 -149 -229 -149 -377
0 -104 21 -173 68 -222 51 -53 107 -69 171 -46 25 9 53 18 62 21 11 4 18 -1
21 -14 5 -16 17 -22 61 -27 31 -4 73 -3 94 2 l38 9 22 149 c12 83 35 244 52
359 22 154 28 213 20 223 -7 8 -35 13 -75 13 -50 0 -68 -4 -84 -20 -19 -19
-20 -19 -62 0 -51 23 -78 24 -138 3z m91 -195 c17 -28 19 -47 17 -128 -3 -78
-8 -105 -30 -152 -14 -31 -38 -64 -52 -73 -25 -17 -28 -17 -46 0 -67 60 -38
304 43 367 32 25 45 22 68 -14z"/>
<path d="M9182 7657 c-14 -17 -66 -303 -83 -454 -18 -167 6 -252 81 -283 39
-16 105 -6 154 24 38 23 39 23 57 5 15 -15 33 -19 77 -18 31 1 68 4 82 8 27 7
27 10 68 271 6 41 23 146 37 233 15 86 25 172 23 190 l-3 32 -89 3 c-49 2 -93
-1 -98 -6 -5 -5 -11 -50 -14 -100 -5 -93 -53 -362 -74 -417 -13 -34 -26 -45
-56 -45 -16 0 -24 10 -32 39 -18 57 -15 97 19 296 44 256 50 229 -52 233 -64
2 -89 -1 -97 -11z"/>
<path d="M3370 7500 c-52 -9 -140 -43 -188 -71 -18 -10 -71 -35 -118 -54 -121
-50 -291 -137 -398 -203 -119 -73 -246 -163 -246 -173 0 -17 57 -37 160 -58
176 -34 258 -43 430 -47 91 -2 204 -6 251 -10 163 -12 348 49 425 142 86 103
102 170 68 283 -40 137 -214 223 -384 191z"/>
<path d="M16905 7434 c-53 -14 -147 -69 -179 -104 -64 -71 -86 -208 -45 -285
43 -80 100 -137 174 -171 104 -48 209 -68 314 -60 47 4 160 8 251 10 265 6
590 63 590 105 0 10 -127 100 -246 173 -107 66 -277 153 -398 203 -47 19 -100
44 -118 55 -93 54 -271 93 -343 74z"/>
<path d="M4125 7051 c-51 -13 -161 -77 -256 -150 -141 -108 -398 -246 -524
-280 -210 -58 -289 -75 -375 -80 -54 -3 -95 -10 -94 -16 1 -17 168 -138 250
-182 94 -49 247 -104 364 -129 122 -27 422 -27 535 0 263 61 499 230 540 387
35 133 23 213 -50 323 -64 97 -146 137 -279 135 -44 -1 -94 -4 -111 -8z"/>
<path d="M16058 6971 c-69 -27 -102 -55 -144 -117 -72 -109 -84 -190 -49 -323
41 -157 277 -326 540 -387 113 -27 413 -27 535 0 117 25 270 80 364 129 82 44
251 166 251 183 0 5 -43 12 -95 15 -86 5 -165 22 -375 80 -126 34 -383 172
-524 280 -57 44 -129 90 -186 121 -54 28 -70 32 -165 35 -85 3 -114 0 -152
-16z"/>
<path d="M1850 6940 c-307 -38 -660 -159 -963 -331 -184 -105 -437 -286 -437
-314 0 -20 6 -19 105 15 166 59 469 103 685 100 393 -6 825 -66 1020 -141 30
-12 84 -33 120 -47 90 -35 225 -37 287 -4 123 65 145 201 60 375 -88 179 -235
285 -462 332 -96 20 -311 27 -415 15z"/>
<path d="M18246 6869 c-206 -27 -386 -116 -478 -236 -55 -73 -109 -195 -115
-263 -9 -99 31 -181 110 -222 62 -33 197 -31 287 4 36 14 90 35 120 47 195 75
627 135 1020 141 216 3 519 -41 685 -100 99 -34 105 -35 105 -15 0 18 -80 82
-230 184 -498 337 -1078 514 -1504 460z"/>
<path d="M9225 6518 c-4 -14 -65 -306 -65 -314 0 -2 56 -4 124 -4 120 0 124 1
130 23 3 12 6 25 6 30 0 4 -41 7 -91 7 l-91 0 7 37 c4 21 9 41 11 45 3 5 41 8
85 8 43 0 79 4 79 9 0 5 3 16 6 25 5 14 -5 16 -75 16 -87 0 -91 3 -71 54 9 25
13 26 94 26 84 0 96 5 96 41 0 15 -240 11 -245 -3z"/>
<path d="M10244 6521 c-29 -13 -74 -69 -74 -92 0 -32 46 -25 64 10 25 47 86
46 86 -2 -1 -31 -25 -58 -98 -106 -59 -40 -102 -89 -102 -118 0 -10 28 -13
109 -13 104 0 109 1 115 23 3 12 6 25 6 29 0 4 -30 8 -67 10 l-68 3 65 45
c104 73 133 133 87 185 -24 29 -86 42 -123 26z"/>
<path d="M10493 6510 c-39 -24 -67 -76 -84 -158 -24 -113 14 -173 97 -157 77
14 134 114 134 234 0 52 -3 62 -26 80 -33 26 -80 27 -121 1z m77 -45 c10 -12
10 -30 2 -79 -17 -108 -53 -160 -93 -136 -31 20 3 186 44 215 27 19 31 19 47
0z"/>
<path d="M10788 6499 c-15 -17 -37 -29 -51 -29 -21 0 -37 -16 -37 -36 0 -2 15
-4 33 -4 19 0 36 -2 39 -5 5 -5 -8 -76 -37 -202 -5 -20 -1 -23 27 -23 l33 0
33 158 c18 86 33 160 32 165 0 18 -47 2 -72 -24z"/>
<path d="M11030 6523 c-8 -3 -30 -19 -48 -37 -42 -39 -77 -147 -69 -209 19
-144 213 -93 219 58 1 29 -4 43 -21 57 -26 20 -72 24 -103 7 -18 -10 -19 -8
-13 13 16 53 78 89 91 53 4 -9 19 -15 39 -15 29 0 32 2 27 25 -8 44 -68 68
-122 48z m33 -184 c26 -42 -31 -112 -72 -89 -45 23 -9 116 41 108 12 -2 25
-10 31 -19z"/>
<path d="M9790 6488 c0 -28 -10 -42 -32 -51 -22 -8 -24 -37 -2 -37 12 0 15 -6
11 -22 -18 -75 -29 -149 -24 -163 9 -22 85 -21 94 1 4 10 -1 22 -12 30 -17 13
-17 19 -5 84 12 63 16 70 37 70 16 0 23 6 23 20 0 12 -7 20 -16 20 -13 0 -15
8 -12 35 4 34 3 35 -29 35 -28 0 -33 -4 -33 -22z"/>
<path d="M9541 6436 c-43 -24 -66 -92 -38 -113 6 -6 36 -18 65 -27 28 -10 52
-21 52 -25 0 -33 -79 -43 -87 -11 -4 15 -14 20 -39 20 -40 0 -46 -23 -15 -61
16 -20 28 -24 73 -23 67 1 112 24 127 65 16 46 -5 74 -69 90 -37 9 -50 18 -50
31 0 14 8 18 34 18 21 0 36 -6 40 -15 3 -9 18 -15 36 -15 23 0 30 4 30 20 0
36 -35 60 -87 60 -27 -1 -59 -7 -72 -14z"/>
<path d="M990 6299 c-220 -21 -522 -84 -577 -122 -18 -12 -33 -25 -33 -28 0
-3 69 -11 153 -17 170 -13 284 -35 432 -82 501 -161 949 -538 1268 -1066 42
-71 81 -143 86 -160 23 -80 112 -178 200 -222 123 -60 274 -23 380 94 94 103
141 234 141 394 0 108 -16 181 -59 272 -17 35 -44 96 -60 136 -207 498 -864
817 -1671 811 -91 -1 -208 -6 -260 -10z"/>
<path d="M9880 6244 c-15 -39 -13 -44 25 -44 21 0 35 5 35 13 0 6 3 22 6 35 6
19 3 22 -25 22 -25 0 -34 -6 -41 -26z"/>
<path d="M18885 6229 c-384 -37 -763 -169 -1010 -351 -159 -118 -300 -290
-366 -450 -16 -40 -43 -101 -60 -136 -43 -91 -59 -164 -59 -272 0 -160 47
-291 141 -394 106 -117 257 -154 380 -94 88 44 177 142 200 222 5 17 44 89 86
160 319 528 767 905 1268 1066 148 47 262 69 433 82 83 6 152 14 152 17 0 3
-15 16 -33 28 -58 40 -358 101 -597 123 -134 12 -405 11 -535 -1z"/>
<path d="M4068 6181 c-32 -10 -79 -32 -105 -49 -27 -16 -79 -37 -118 -45 -38
-9 -110 -26 -160 -37 -49 -12 -119 -23 -155 -25 -36 -2 -150 -13 -253 -24
-164 -18 -210 -19 -359 -10 -94 6 -172 8 -175 5 -19 -19 163 -191 291 -276
192 -128 440 -232 676 -281 84 -18 139 -23 275 -23 191 -1 260 12 374 66 301
143 315 531 26 674 -66 33 -85 37 -167 40 -72 3 -106 0 -150 -15z"/>
<path d="M16126 6119 c-21 -5 -65 -23 -98 -41 -172 -92 -239 -297 -156 -476
50 -107 180 -200 334 -239 106 -27 374 -24 514 6 236 49 484 153 676 281 128
85 310 257 291 276 -3 3 -81 1 -175 -5 -149 -9 -195 -8 -359 10 -103 11 -217
22 -253 24 -36 2 -105 13 -155 25 -49 11 -121 28 -160 37 -38 8 -91 29 -118
45 -95 60 -231 83 -341 57z"/>
<path d="M507 5994 c-9 -10 4 -35 51 -97 127 -166 239 -340 308 -474 76 -147
178 -413 198 -514 56 -287 55 -272 54 -539 -1 -232 1 -262 20 -335 48 -176
140 -308 255 -365 87 -42 160 -48 267 -21 261 67 443 238 501 471 9 36 14 113
14 220 0 136 -4 183 -24 270 -57 258 -174 454 -435 734 -277 296 -569 498
-861 595 -132 44 -328 75 -348 55z"/>
<path d="M255 5931 c-3 -6 -3 -15 0 -21 10 -17 7 -710 -4 -832 -26 -283 -82
-565 -139 -693 -54 -124 -65 -176 -60 -294 5 -125 27 -190 92 -279 51 -69 143
-134 225 -159 36 -12 90 -18 151 -18 87 0 100 3 150 30 30 16 85 60 122 97
297 297 282 1015 -34 1608 -66 124 -170 275 -255 372 -66 75 -189 188 -204
188 -4 0 -14 3 -22 6 -8 3 -18 1 -22 -5z"/>
<path d="M19746 5914 c-339 -62 -702 -287 -1032 -640 -261 -280 -378 -476
-435 -734 -20 -87 -24 -134 -24 -270 0 -183 9 -234 60 -345 53 -115 178 -235
310 -296 97 -45 219 -72 290 -65 174 18 313 166 377 401 19 73 21 103 20 335
-1 267 -2 252 54 539 20 101 122 367 198 514 69 135 182 308 309 476 64 84 64
96 2 98 -27 1 -86 -5 -129 -13z"/>
<path d="M20127 5855 c-76 -39 -230 -205 -336 -360 -358 -523 -470 -1217 -265
-1643 52 -108 143 -208 234 -257 50 -27 63 -30 150 -30 61 0 115 6 151 18 82
25 174 90 225 159 65 89 87 154 92 279 5 118 -6 170 -60 294 -57 130 -115 419
-138 694 -11 124 -15 408 -10 686 1 93 -1 170 -6 172 -5 2 -22 -4 -37 -12z"/>
<path d="M3000 5540 c0 -19 115 -182 198 -280 261 -312 593 -534 883 -591 84
-17 223 -7 283 19 94 42 170 115 218 211 95 190 -24 384 -266 433 -44 8 -101
8 -235 0 -282 -19 -549 -16 -659 8 -100 21 -264 99 -359 171 -56 42 -63 45
-63 29z"/>
<path d="M17365 5440 c-90 -70 -256 -149 -357 -170 -110 -24 -377 -27 -659 -8
-134 8 -191 8 -235 0 -242 -49 -361 -243 -266 -433 48 -96 124 -169 218 -211
60 -26 199 -36 283 -19 346 68 754 376 1022 773 81 119 79 134 -6 68z"/>
<path d="M3120 5106 c0 -78 158 -410 288 -606 284 -427 671 -753 1054 -888
130 -46 241 -64 372 -60 103 3 116 6 177 36 101 51 171 119 216 208 33 68 37
83 36 152 0 93 -26 166 -86 247 -103 140 -322 245 -508 245 -37 0 -70 4 -73 8
-2 4 -31 9 -63 10 -64 2 -199 23 -335 53 -318 67 -723 286 -955 515 -57 57
-109 104 -114 104 -5 0 -9 -11 -9 -24z"/>
<path d="M17183 4955 c-223 -225 -632 -446 -951 -514 -136 -30 -271 -51 -335
-53 -32 -1 -61 -6 -63 -10 -3 -4 -36 -8 -73 -8 -186 0 -405 -105 -508 -245
-60 -81 -86 -154 -86 -247 -1 -69 3 -84 36 -152 45 -89 115 -157 216 -208 61
-30 74 -33 177 -36 131 -4 242 14 372 60 472 166 949 626 1217 1173 106 215
149 347 113 344 -7 -1 -59 -47 -115 -104z"/>
<path d="M3156 4722 c-29 -48 -42 -601 -18 -792 78 -617 355 -1101 726 -1265
77 -34 278 -85 335 -85 251 0 436 228 393 483 -33 191 -180 364 -355 415 -43
13 -98 47 -220 135 -264 191 -356 272 -434 383 -118 169 -225 356 -349 611
-57 117 -67 132 -78 115z"/>
<path d="M17196 4537 c-124 -256 -231 -442 -349 -611 -78 -111 -170 -192 -434
-383 -122 -88 -177 -122 -220 -135 -175 -51 -322 -224 -355 -415 -43 -255 142
-483 393 -483 57 0 258 51 335 85 256 113 487 402 613 768 78 227 117 454 128
737 8 227 -16 549 -42 556 -6 2 -37 -52 -69 -119z"/>
<path d="M5805 4599 c-57 -31 -92 -65 -142 -142 -72 -110 -86 -231 -52 -462
24 -160 94 -355 191 -530 88 -160 137 -230 235 -335 60 -65 209 -190 226 -190
6 0 7 24 3 63 -3 34 -11 112 -16 172 -6 61 -15 135 -20 165 -5 30 -14 118 -20
195 -6 77 -15 185 -20 240 -6 55 -14 228 -19 385 -5 192 -12 293 -20 309 -23
42 -84 102 -125 123 -61 32 -169 35 -221 7z"/>
<path d="M6680 4579 c-30 -5 -93 -28 -140 -51 -69 -35 -93 -54 -133 -103 -56
-70 -99 -155 -121 -241 -85 -331 3 -768 227 -1130 59 -96 143 -197 159 -192 5
2 10 111 12 243 3 220 5 248 28 335 40 149 95 254 227 435 171 233 181 496 26
633 -71 63 -174 88 -285 71z"/>
<path d="M5334 4560 c-32 -13 -72 -66 -85 -113 -18 -65 -6 -208 26 -307 36
-113 104 -249 169 -335 85 -113 193 -211 212 -192 4 4 -8 44 -25 89 -68 174
-74 205 -65 388 10 223 8 337 -9 385 -11 33 -22 45 -67 68 -54 27 -114 34
-156 17z"/>
<path d="M9375 4559 c-65 -15 -194 -98 -241 -156 -35 -43 -44 -63 -54 -124
-27 -158 -1 -247 150 -529 99 -185 132 -262 170 -400 11 -40 14 -43 24 -26 6
10 20 30 32 45 11 14 52 87 91 161 39 74 97 187 131 250 88 169 107 232 107
360 0 93 -3 111 -27 163 -37 80 -113 174 -165 207 -37 24 -81 39 -163 55 -8 1
-33 -1 -55 -6z"/>
<path d="M10034 4541 c-97 -28 -144 -72 -173 -161 -6 -19 -15 -145 -20 -280
-8 -226 -10 -249 -32 -292 -12 -26 -20 -50 -17 -53 16 -16 327 182 393 251 75
77 145 221 145 297 0 94 -66 202 -144 238 -50 23 -73 23 -152 0z"/>
<path d="M11851 4550 c-63 -13 -148 -67 -191 -122 -45 -56 -88 -159 -96 -230
-19 -172 116 -432 351 -677 116 -120 223 -200 413 -308 144 -81 427 -221 482
-238 14 -4 51 -21 82 -36 67 -34 128 -39 128 -11 0 20 -45 65 -171 170 -139
116 -243 265 -319 457 -77 191 -86 235 -119 550 -10 96 -56 240 -95 297 -66
100 -317 179 -465 148z"/>
<path d="M12945 4546 c-153 -34 -294 -195 -339 -386 -43 -183 0 -424 119 -660
20 -39 44 -93 55 -121 21 -52 58 -109 72 -109 4 0 7 64 5 143 l-2 142 39 70
c42 76 162 239 236 322 60 66 113 146 152 230 44 93 50 207 16 273 -25 49 -70
84 -127 100 -46 13 -162 11 -226 -4z"/>
<path d="M10755 4539 c-169 -25 -304 -150 -350 -324 -19 -75 -19 -221 0 -320
75 -393 598 -765 1285 -914 227 -49 487 -68 753 -56 166 7 167 7 167 30 0 20
-20 34 -122 87 -611 319 -1158 866 -1258 1255 -7 29 -29 62 -65 101 -104 113
-252 164 -410 141z"/>
<path d="M14450 4541 c-66 -20 -137 -80 -171 -142 -8 -16 -15 -117 -20 -309
-5 -157 -13 -330 -19 -385 -5 -55 -14 -163 -20 -240 -6 -77 -15 -165 -20 -195
-5 -30 -14 -104 -20 -165 -5 -60 -13 -138 -16 -172 -4 -39 -3 -63 3 -63 17 0
166 125 226 190 209 225 384 581 426 865 40 273 11 412 -113 543 -65 70 -169
99 -256 73z"/>
<path d="M7985 4530 c-120 -10 -175 -25 -270 -73 -103 -53 -236 -183 -283
-277 -29 -57 -32 -72 -32 -154 1 -101 19 -162 81 -257 34 -54 133 -142 191
-171 18 -9 80 -39 137 -68 73 -37 142 -62 239 -86 144 -36 283 -95 446 -188
50 -29 127 -72 171 -96 105 -57 205 -124 345 -232 192 -148 250 -198 372 -321
64 -66 121 -116 127 -113 20 13 -11 249 -59 453 -144 608 -451 1131 -823 1404
-93 68 -235 140 -322 163 -74 20 -202 27 -320 16z"/>
<path d="M13614 4509 c-63 -12 -108 -33 -154 -75 -150 -136 -137 -399 31 -629
132 -181 187 -286 227 -435 23 -87 25 -115 28 -335 2 -132 7 -241 12 -243 30
-10 181 210 258 373 212 454 215 934 7 1189 -92 114 -270 181 -409 155z"/>
<path d="M14941 4473 c-45 -23 -57 -35 -68 -68 -17 -48 -19 -162 -9 -385 9
-183 3 -214 -65 -388 -17 -45 -29 -85 -25 -89 10 -11 52 17 107 71 168 164
295 425 306 631 6 110 -7 164 -51 212 -28 31 -40 37 -87 40 -45 4 -63 0 -108
-24z"/>
<path d="M2850 4378 c-132 -142 -255 -432 -299 -698 -40 -252 -37 -418 14
-747 33 -210 71 -338 146 -487 161 -320 394 -560 618 -637 94 -33 249 -20 342
26 106 54 179 202 195 395 10 121 -8 148 -274 416 -229 232 -293 321 -429 604
-63 133 -72 154 -99 230 -14 41 -37 104 -49 140 -33 92 -62 203 -74 285 -6 39
-18 115 -26 170 -17 107 -23 226 -15 289 6 52 -11 57 -50 14z"/>
<path d="M17528 4335 c-3 -3 -1 -29 4 -58 11 -68 6 -125 -43 -442 -12 -82 -41
-193 -74 -285 -12 -36 -35 -99 -49 -140 -27 -76 -36 -97 -99 -230 -136 -283
-200 -372 -429 -604 -189 -190 -225 -232 -258 -296 -34 -67 -22 -186 36 -341
44 -119 123 -185 249 -208 167 -31 279 1 457 132 87 65 236 236 310 357 47 77
118 213 138 266 58 148 108 401 131 659 32 366 -67 798 -246 1065 -67 100
-110 142 -127 125z"/>
<path d="M2495 4145 c-20 -25 -69 -71 -108 -102 -566 -445 -842 -1228 -607
-1718 64 -132 215 -315 337 -406 123 -92 267 -141 359 -121 231 48 273 355 97
707 -54 107 -110 286 -143 455 -13 70 -17 353 -7 490 15 191 74 524 117 663
24 74 24 77 6 77 -7 0 -30 -20 -51 -45z"/>
<path d="M17870 4113 c0 -5 9 -36 20 -70 43 -139 102 -472 117 -663 10 -137 6
-420 -7 -490 -33 -169 -89 -348 -143 -455 -118 -236 -142 -480 -58 -605 60
-90 161 -125 276 -97 166 41 324 162 479 367 170 224 219 495 150 835 -76 374
-336 782 -661 1038 -39 31 -88 77 -108 102 -33 40 -65 59 -65 38z"/>
<path d="M7161 3785 c-64 -20 -144 -78 -191 -140 -46 -60 -60 -109 -81 -287
-15 -129 -6 -449 15 -528 8 -30 25 -127 37 -215 12 -88 25 -170 30 -182 11
-31 33 -29 57 5 28 39 218 394 296 552 36 74 89 173 116 220 61 104 83 173 83
265 0 99 -16 140 -81 220 -43 52 -70 74 -103 87 -53 20 -118 22 -178 3z"/>
<path d="M9906 3739 c-117 -28 -296 -168 -343 -271 -31 -64 -43 -152 -33 -231
7 -57 16 -77 73 -164 241 -365 641 -585 1212 -665 131 -19 473 -15 620 6 237
34 425 83 636 167 143 57 212 106 193 136 -9 15 -32 19 -150 24 -274 13 -551
80 -899 216 -154 60 -398 179 -491 238 -119 76 -273 214 -344 310 -38 50 -89
110 -114 133 -98 91 -237 130 -360 101z"/>
<path d="M13091 3712 c-33 -13 -60 -35 -103 -87 -65 -80 -81 -121 -81 -220 0
-92 22 -161 83 -265 27 -47 80 -146 116 -220 78 -158 268 -513 296 -552 24
-34 46 -36 57 -5 5 12 18 94 30 182 12 88 29 185 37 215 21 79 30 399 15 528
-21 178 -35 227 -81 287 -98 127 -249 183 -369 137z"/>
<path d="M5346 3619 c-213 -50 -528 -392 -713 -774 -29 -60 -53 -113 -53 -117
0 -16 26 -7 89 31 80 48 249 106 353 122 99 15 179 1 285 -47 97 -45 195 -74
249 -74 190 0 325 168 311 384 -19 291 -282 531 -521 475z"/>
<path d="M14936 3549 c-103 -25 -202 -96 -273 -196 -176 -248 -115 -578 121
-648 94 -28 185 -12 339 59 106 48 186 62 285 47 104 -16 273 -74 353 -122 63
-38 89 -47 89 -31 0 17 -111 234 -160 312 -213 341 -471 571 -655 585 -33 2
-77 0 -99 -6z"/>
<path d="M717 3484 c-79 -9 -126 -21 -170 -42 -215 -101 -402 -350 -473 -628
-25 -101 -32 -222 -14 -268 26 -69 142 -82 290 -32 311 103 817 435 1286 842
68 59 124 114 124 122 0 12 -12 13 -62 8 -211 -20 -406 -26 -574 -16 -98 6
-195 13 -214 16 -73 11 -88 11 -193 -2z"/>
<path d="M19535 3419 c-27 -4 -131 -13 -230 -19 -170 -10 -338 -5 -567 16 -55
5 -68 3 -68 -8 0 -8 56 -63 124 -122 469 -407 975 -739 1286 -842 148 -50 264
-37 290 32 32 83 -7 298 -84 459 -132 279 -332 451 -552 475 -49 5 -102 12
-119 14 -16 2 -52 0 -80 -5z"/>
<path d="M8070 3289 c-137 -23 -263 -124 -347 -277 -47 -85 -48 -89 -47 -172
0 -68 5 -94 23 -129 32 -61 103 -134 182 -187 150 -100 294 -131 528 -114 80
6 182 15 227 21 152 21 370 -19 533 -98 74 -35 109 -60 163 -114 37 -38 72
-69 77 -69 5 0 14 7 21 15 17 20 9 37 -81 182 -147 236 -354 485 -528 636
-274 237 -536 343 -751 306z"/>
<path d="M1633 3173 c-33 -27 -87 -64 -119 -83 -31 -19 -91 -56 -131 -82 -41
-27 -76 -48 -78 -48 -5 0 -260 -151 -614 -363 -128 -77 -273 -156 -320 -177
-114 -48 -274 -170 -307 -232 -10 -19 -14 -62 -14 -138 0 -126 9 -152 86 -251
67 -85 178 -135 279 -127 243 20 705 515 1132 1213 206 336 224 396 86 288z"/>
<path d="M18710 3130 c0 -36 182 -341 357 -600 186 -273 350 -478 523 -650
234 -235 388 -311 531 -265 85 28 126 55 173 114 77 99 86 125 86 251 0 76 -4
119 -14 138 -33 62 -193 184 -307 232 -47 21 -192 100 -320 177 -354 212 -609
363 -614 363 -2 0 -37 21 -78 48 -40 26 -100 63 -131 82 -32 19 -86 56 -119
83 -66 51 -87 58 -87 27z"/>
<path d="M12645 2810 c-159 -82 -308 -218 -413 -378 -76 -115 -99 -178 -113
-301 -13 -115 -3 -179 42 -271 47 -93 118 -140 213 -140 51 0 97 22 150 70 74
68 81 98 70 313 -12 244 -9 317 15 412 28 106 69 189 120 247 78 88 37 111
-84 48z"/>
<path d="M6268 2800 c-105 -57 -123 -187 -53 -375 39 -105 95 -283 95 -305 1
-8 7 -33 15 -55 16 -43 47 -188 65 -301 26 -166 33 -636 11 -804 -5 -41 -15
-113 -21 -160 -15 -118 -29 -185 -53 -257 -11 -35 -17 -66 -12 -70 4 -5 10 -2
12 5 3 7 40 53 83 103 44 50 107 132 140 182 142 212 292 590 369 927 12 52
29 124 38 160 21 85 28 266 14 355 -35 232 -113 374 -284 517 -82 70 -135 88
-277 94 -92 4 -110 2 -142 -16z"/>
<path d="M1552 2738 c-22 -35 -65 -99 -96 -143 -31 -44 -67 -96 -80 -115 -13
-19 -67 -100 -120 -180 -53 -80 -115 -171 -139 -202 -70 -96 -189 -251 -222
-289 -16 -20 -59 -78 -95 -129 -36 -52 -100 -135 -142 -185 -43 -49 -94 -112
-115 -138 -55 -70 -127 -151 -209 -237 -39 -41 -91 -106 -115 -145 -23 -38
-49 -77 -56 -86 -8 -9 -30 -43 -49 -75 -48 -79 -71 -215 -53 -314 26 -149 76
-255 156 -331 98 -94 118 -99 372 -99 l217 0 93 45 c132 64 191 106 251 178
114 137 201 346 265 637 14 63 32 142 39 175 31 130 63 334 71 445 4 41 10 86
15 100 4 14 13 86 20 160 6 74 15 167 20 205 20 152 27 274 32 584 2 136 0
195 -8 198 -6 2 -30 -25 -52 -59z"/>
<path d="M5698 2752 c-60 -22 -111 -71 -138 -135 -40 -92 -11 -178 93 -276 34
-32 102 -96 152 -142 49 -46 120 -117 157 -157 107 -115 242 -314 268 -394 17
-56 30 -46 30 25 -1 194 -123 686 -222 897 -44 92 -89 144 -149 169 -69 30
-133 34 -191 13z"/>
<path d="M13903 2735 c-77 -17 -94 -26 -168 -89 -164 -139 -241 -282 -276
-511 -14 -89 -7 -270 14 -355 9 -36 26 -108 38 -160 77 -337 227 -715 369
-927 33 -50 96 -132 140 -182 43 -50 80 -96 83 -103 2 -7 8 -10 12 -5 5 4 -1
35 -12 70 -24 72 -38 139 -53 257 -6 47 -16 119 -21 160 -22 168 -15 638 11
804 18 113 49 258 65 301 8 22 14 47 15 55 0 22 56 200 95 305 71 190 51 321
-55 375 -47 24 -160 26 -257 5z"/>
<path d="M18815 2719 c-6 -9 -4 -82 10 -469 3 -96 13 -216 25 -305 5 -38 14
-131 20 -205 7 -74 16 -146 20 -160 5 -14 11 -59 15 -100 8 -111 40 -315 71
-445 7 -33 25 -112 39 -175 64 -291 151 -500 265 -637 60 -72 119 -114 251
-178 l93 -45 217 0 c254 0 274 5 372 99 80 76 130 182 156 331 18 99 -5 235
-53 314 -19 32 -41 66 -49 75 -7 9 -33 48 -56 86 -24 39 -76 104 -115 145 -82
86 -154 167 -209 237 -21 26 -72 89 -115 138 -42 50 -106 133 -142 185 -36 51
-79 109 -95 129 -33 38 -152 193 -222 289 -24 31 -86 122 -139 202 -53 80
-107 161 -120 180 -13 19 -49 71 -80 115 -31 44 -74 108 -96 143 -40 62 -51
71 -63 51z"/>
<path d="M4855 2694 c-257 -55 -527 -201 -728 -393 -94 -91 -173 -185 -203
-243 -13 -26 -13 -29 3 -35 9 -4 45 3 79 15 179 63 685 66 903 5 81 -22 108
-25 190 -21 107 6 159 23 236 76 100 69 154 172 155 295 0 79 -19 125 -83 194
-47 51 -110 86 -194 108 -73 19 -264 18 -358 -1z"/>
<path d="M14585 2686 c-95 -30 -139 -72 -193 -186 -99 -211 -221 -703 -222
-897 0 -71 13 -81 30 -25 26 80 161 279 268 394 37 40 108 111 157 157 50 46
118 110 152 142 104 98 133 184 93 276 -27 64 -82 116 -144 137 -58 19 -86 19
-141 2z"/>
<path d="M7526 2664 c-88 -32 -183 -130 -278 -287 -98 -161 -147 -286 -182
-467 -10 -47 -22 -103 -28 -124 -13 -53 -28 -268 -19 -284 6 -10 25 1 72 40
253 208 658 618 692 700 33 79 39 140 21 219 -9 41 -22 85 -29 99 -25 48 -80
91 -136 105 -64 17 -63 17 -113 -1z"/>
<path d="M15213 2625 c-80 -22 -144 -58 -190 -108 -64 -69 -83 -115 -83 -194
1 -123 55 -226 155 -295 77 -53 129 -70 236 -76 82 -4 109 -1 190 21 218 61
724 58 903 -5 34 -12 70 -19 79 -15 16 6 16 9 3 35 -30 58 -109 152 -203 243
-204 195 -475 340 -735 393 -96 20 -284 20 -355 1z"/>
<path d="M12786 2595 c-50 -14 -107 -60 -131 -105 -7 -14 -20 -58 -29 -99 -18
-79 -12 -140 21 -219 34 -82 439 -492 692 -700 47 -39 66 -50 72 -40 9 16 -6
231 -19 284 -6 21 -18 77 -28 124 -20 105 -68 259 -101 325 -113 227 -253 392
-362 430 -52 17 -51 17 -115 0z"/>
<path d="M9722 2555 c-74 -21 -106 -39 -141 -82 -86 -105 -93 -316 -15 -473
85 -168 311 -307 594 -365 105 -22 401 -31 526 -16 417 48 790 207 1013 430
79 79 219 240 258 297 28 40 16 51 -36 36 -275 -80 -582 -113 -936 -100 -319
11 -473 46 -759 172 -226 100 -390 133 -504 101z"/>
<path d="M11971 2275 c-155 -151 -258 -318 -320 -520 -39 -129 -51 -205 -51
-335 1 -202 58 -368 171 -496 32 -37 59 -70 59 -75 0 -19 117 -52 185 -53 59
0 78 4 123 29 62 34 107 90 128 161 19 68 19 224 -1 299 -20 77 -76 195 -122
259 -82 114 -124 256 -125 421 0 111 14 204 42 274 24 61 29 113 12 118 -7 3
-53 -34 -101 -82z"/>
<path d="M8227 2326 c-128 -37 -210 -104 -262 -214 -39 -81 -42 -147 -15 -266
39 -166 133 -283 294 -361 96 -47 173 -65 276 -65 101 0 206 27 473 118 98 34
222 71 275 81 147 30 351 43 482 30 105 -11 160 -7 160 9 0 12 -169 109 -380
218 -107 56 -252 131 -321 167 -147 78 -503 224 -639 262 -116 32 -270 42
-343 21z"/>
<path d="M1760 2173 c0 -5 -5 -37 -10 -73 -21 -138 -29 -209 -35 -315 -15
-272 -41 -426 -110 -650 -96 -313 -103 -344 -119 -515 -17 -193 -13 -221 43
-332 39 -78 57 -102 118 -155 l73 -63 248 0 249 0 54 38 c61 42 110 115 137
202 12 40 17 87 16 175 -1 136 -22 229 -113 500 -105 314 -162 441 -409 905
-42 80 -92 197 -116 273 -5 17 -26 24 -26 10z"/>
<path d="M18644 2093 c-24 -76 -74 -193 -116 -273 -247 -464 -304 -591 -409
-905 -91 -271 -112 -364 -113 -500 -1 -88 4 -135 16 -175 27 -87 76 -160 137
-202 l54 -38 249 0 248 0 73 63 c61 53 79 77 118 155 56 111 60 139 43 332
-16 171 -23 202 -119 515 -69 224 -95 378 -110 650 -6 106 -14 177 -35 315 -5
36 -10 68 -10 73 0 14 -21 7 -26 -10z"/>
<path d="M5420 2057 c-88 -55 -117 -87 -134 -146 -44 -156 46 -270 348 -442
108 -62 258 -194 350 -309 72 -89 148 -229 184 -336 39 -115 73 -281 73 -350
0 -82 19 -63 46 47 37 152 46 249 40 434 -8 240 -51 413 -152 615 -128 253
-319 430 -534 494 -81 24 -177 21 -221 -7z"/>
<path d="M14780 1991 c-216 -70 -399 -241 -525 -491 -101 -202 -144 -375 -152
-615 -6 -185 3 -282 40 -434 27 -110 46 -129 46 -47 0 69 34 235 73 350 36
107 112 247 184 336 92 115 242 247 350 309 302 172 392 286 348 441 -17 60
-50 96 -135 148 -46 28 -149 29 -229 3z"/>
<path d="M4400 1973 c-64 -9 -125 -28 -245 -72 -169 -63 -355 -116 -491 -140
-95 -16 -173 -33 -224 -48 -36 -11 83 -69 300 -149 101 -37 155 -64 279 -144
361 -229 409 -252 540 -252 251 0 450 166 460 383 2 50 -2 96 -13 130 -16 56
-82 152 -128 189 -40 31 -149 78 -221 95 -57 13 -195 18 -257 8z"/>
<path d="M15768 1895 c-68 -17 -178 -66 -216 -95 -46 -37 -112 -133 -128 -189
-11 -34 -15 -80 -13 -130 10 -217 209 -383 460 -383 131 0 179 23 540 252 124
80 178 107 279 144 217 80 336 138 300 149 -51 15 -129 32 -224 48 -134 23
-322 77 -481 136 -66 25 -142 52 -170 60 -74 21 -277 26 -347 8z"/>
<path d="M2668 1792 c-36 -7 -23 -30 87 -163 128 -153 240 -286 291 -344 239
-271 335 -417 368 -558 33 -141 96 -257 199 -364 256 -267 616 -255 766 26 47
89 73 216 69 337 -3 93 -6 107 -40 175 -180 358 -829 731 -1503 863 -97 19
-214 33 -237 28z"/>
<path d="M2200 1741 c0 -5 7 -16 15 -24 31 -31 170 -245 207 -320 69 -136 96
-341 69 -522 -14 -93 -14 -318 0 -408 24 -156 84 -272 180 -351 l56 -46 172 0
172 0 44 30 c102 70 192 211 220 345 29 139 15 237 -55 380 -151 306 -547 683
-919 874 -92 47 -161 65 -161 42z"/>
<path d="M17715 1723 c-151 -15 -402 -71 -585 -133 -530 -180 -967 -479 -1108
-759 -34 -68 -37 -82 -40 -175 -4 -121 22 -248 69 -337 99 -186 299 -263 504
-194 224 74 403 281 461 532 33 141 129 287 368 558 90 102 338 398 374 447
37 51 26 67 -43 61z"/>
<path d="M7525 1697 c-243 -81 -492 -299 -672 -587 -79 -128 -173 -331 -204
-442 -10 -37 -19 -70 -19 -73 0 -13 35 0 170 61 281 127 650 275 735 295 22 6
95 28 162 50 116 39 124 43 177 98 73 77 112 142 138 225 23 75 21 156 -6 220
-21 50 -83 114 -140 144 -44 23 -65 26 -161 29 -94 3 -120 0 -180 -20z"/>
<path d="M11166 1599 c-171 -138 -277 -237 -372 -352 -215 -257 -324 -503
-324 -732 0 -165 52 -290 169 -405 107 -106 117 -110 301 -110 177 0 190 5
259 93 71 93 76 112 75 292 0 109 -6 189 -18 250 -23 118 -37 392 -25 481 5
38 14 116 20 174 7 76 23 143 56 242 72 218 56 225 -141 67z"/>
<path d="M18062 1625 c-377 -198 -762 -566 -912 -870 -70 -143 -84 -241 -55
-380 28 -134 118 -275 220 -345 l44 -30 172 0 172 0 56 46 c96 79 156 195 180
351 14 90 14 315 0 408 -27 181 0 386 69 522 37 75 176 289 207 320 55 54 -32
42 -153 -22z"/>
<path d="M12620 1641 c-83 -26 -167 -97 -196 -167 -56 -134 -6 -299 132 -445
53 -55 61 -59 177 -98 67 -22 140 -44 162 -50 85 -20 454 -168 735 -295 135
-61 170 -74 170 -61 0 3 -9 36 -19 73 -31 111 -125 314 -204 442 -182 291
-440 515 -681 589 -70 22 -222 28 -276 12z"/>
<path d="M10999 1597 c-24 -13 -116 -63 -204 -111 -178 -98 -569 -296 -685
-346 -140 -61 -475 -229 -521 -262 -353 -250 -428 -340 -437 -519 -4 -72 -1
-92 16 -125 31 -60 90 -108 198 -159 119 -57 213 -79 310 -72 81 6 129 24 186
68 65 52 175 197 225 299 56 113 260 406 377 541 17 19 78 100 136 179 114
157 249 303 389 424 50 43 91 85 91 92 0 21 -31 17 -81 -9z"/>
<path d="M9765 1554 c-16 -3 -129 -16 -250 -30 -121 -14 -269 -36 -330 -50
-60 -14 -169 -36 -242 -49 -303 -57 -418 -121 -489 -270 -39 -80 -44 -140 -18
-238 21 -82 47 -131 107 -199 74 -85 129 -109 267 -116 88 -4 124 -1 178 13
95 26 216 84 319 152 48 33 176 109 283 168 107 60 251 143 320 185 69 42 177
105 240 140 63 35 147 83 185 108 39 25 93 59 120 77 28 17 62 39 77 48 16 10
25 23 22 31 -4 10 -59 15 -262 20 -141 3 -311 8 -377 10 -66 2 -133 2 -150 0z"/>
<path d="M5217 1418 c-21 -5 -62 -32 -92 -60 -46 -42 -58 -60 -75 -115 -25
-82 -25 -143 -1 -191 33 -65 59 -79 216 -121 136 -37 318 -108 420 -165 147
-82 305 -222 362 -321 56 -96 80 -59 70 104 -17 267 -262 623 -543 789 -124
73 -268 105 -357 80z"/>
<path d="M15070 1353 c-227 -38 -527 -299 -670 -583 -54 -107 -81 -198 -87
-291 -10 -163 14 -200 70 -104 57 99 215 239 362 321 102 57 284 128 420 165
157 42 183 56 216 121 24 48 24 109 -1 191 -17 55 -29 73 -74 115 -70 63 -137
82 -236 65z"/>
<path d="M11416 1333 c-23 -76 -68 -352 -75 -461 -14 -228 13 -486 69 -652 26
-77 51 -120 104 -177 l39 -43 98 0 c99 0 99 0 137 34 46 42 90 120 100 177 l7
42 39 -50 c64 -84 190 -166 297 -193 79 -20 383 -8 554 22 243 42 438 61 880
83 347 18 495 31 509 45 14 14 -17 44 -119 112 -336 225 -978 444 -1499 513
-146 19 -281 19 -370 0 -160 -34 -324 -201 -327 -333 0 -23 -3 -20 -19 19 -10
25 -43 91 -73 145 -69 126 -226 433 -255 500 -12 29 -30 83 -38 120 -9 38 -18
79 -21 92 -6 26 -29 29 -37 5z"/>
<path d="M7865 854 c-520 -70 -1158 -290 -1490 -512 -102 -68 -133 -98 -119
-112 14 -14 162 -27 509 -45 445 -22 640 -41 880 -83 130 -23 177 -27 355 -27
195 0 208 1 260 24 133 59 230 143 278 241 37 75 42 182 13 260 -43 115 -180
228 -307 255 -84 18 -245 18 -379 -1z"/>
<path d="M4900 834 c-144 -31 -280 -126 -330 -230 -12 -27 -27 -84 -33 -127
-12 -93 5 -173 53 -247 30 -46 96 -114 140 -144 36 -24 271 -24 291 1 23 27
133 72 242 98 179 43 299 56 570 62 230 5 257 7 257 22 0 35 -79 149 -160 231
-163 165 -381 279 -629 330 -117 24 -301 26 -401 4z"/>
<path d="M15125 760 c-246 -52 -463 -167 -625 -330 -81 -82 -160 -196 -160
-231 0 -15 27 -17 258 -22 270 -6 390 -19 569 -62 109 -26 219 -71 242 -98 20
-25 255 -25 291 -1 44 30 110 98 140 144 48 74 65 154 53 247 -6 43 -21 100
-33 127 -51 107 -187 200 -338 231 -101 21 -284 18 -397 -5z"/>
</g>
</svg>
